<?xml version="1.0" encoding="utf-8" standalone="no"?>
<!DOCTYPE svg PUBLIC "-//W3C//DTD SVG 1.1//EN"
  "http://www.w3.org/Graphics/SVG/1.1/DTD/svg11.dtd">
<!-- Created with matplotlib (http://matplotlib.org/) -->
<svg height="360pt" version="1.1" viewBox="0 0 1440 360" width="1440pt" xmlns="http://www.w3.org/2000/svg" xmlns:xlink="http://www.w3.org/1999/xlink">
 <defs>
  <style type="text/css">
*{stroke-linecap:butt;stroke-linejoin:round;}
  </style>
 </defs>
 <g id="figure_1">
  <g id="patch_1">
   <path d="M 0 360 
L 1440 360 
L 1440 0 
L 0 0 
z
" style="fill:#ffffff;"/>
  </g>
  <g id="axes_1">
   <g id="patch_2">
    <path d="M 180 315 
L 564.827586 315 
L 564.827586 43.2 
L 180 43.2 
z
" style="fill:#eaeaf2;"/>
   </g>
   <g id="matplotlib.axis_1">
    <g id="xtick_1">
     <g id="line2d_1">
      <path clip-path="url(#p8674975347)" d="M 180 315 
L 180 43.2 
" style="fill:none;stroke:#ffffff;stroke-linecap:round;"/>
     </g>
     <g id="text_1">
      <!-- 0.0 -->
      <defs>
       <path d="M 31.78125 66.40625 
Q 24.171875 66.40625 20.328125 58.90625 
Q 16.5 51.421875 16.5 36.375 
Q 16.5 21.390625 20.328125 13.890625 
Q 24.171875 6.390625 31.78125 6.390625 
Q 39.453125 6.390625 43.28125 13.890625 
Q 47.125 21.390625 47.125 36.375 
Q 47.125 51.421875 43.28125 58.90625 
Q 39.453125 66.40625 31.78125 66.40625 
z
M 31.78125 74.21875 
Q 44.046875 74.21875 50.515625 64.515625 
Q 56.984375 54.828125 56.984375 36.375 
Q 56.984375 17.96875 50.515625 8.265625 
Q 44.046875 -1.421875 31.78125 -1.421875 
Q 19.53125 -1.421875 13.0625 8.265625 
Q 6.59375 17.96875 6.59375 36.375 
Q 6.59375 54.828125 13.0625 64.515625 
Q 19.53125 74.21875 31.78125 74.21875 
z
" id="DejaVuSans-30"/>
       <path d="M 10.6875 12.40625 
L 21 12.40625 
L 21 0 
L 10.6875 0 
z
" id="DejaVuSans-2e"/>
      </defs>
      <g style="fill:#262626;" transform="translate(171.253281 332.858281)scale(0.11 -0.11)">
       <use xlink:href="#DejaVuSans-30"/>
       <use x="63.623047" xlink:href="#DejaVuSans-2e"/>
       <use x="95.410156" xlink:href="#DejaVuSans-30"/>
      </g>
     </g>
    </g>
    <g id="xtick_2">
     <g id="line2d_2">
      <path clip-path="url(#p8674975347)" d="M 256.965517 315 
L 256.965517 43.2 
" style="fill:none;stroke:#ffffff;stroke-linecap:round;"/>
     </g>
     <g id="text_2">
      <!-- 0.2 -->
      <defs>
       <path d="M 19.1875 8.296875 
L 53.609375 8.296875 
L 53.609375 0 
L 7.328125 0 
L 7.328125 8.296875 
Q 12.9375 14.109375 22.625 23.890625 
Q 32.328125 33.6875 34.8125 36.53125 
Q 39.546875 41.84375 41.421875 45.53125 
Q 43.3125 49.21875 43.3125 52.78125 
Q 43.3125 58.59375 39.234375 62.25 
Q 35.15625 65.921875 28.609375 65.921875 
Q 23.96875 65.921875 18.8125 64.3125 
Q 13.671875 62.703125 7.8125 59.421875 
L 7.8125 69.390625 
Q 13.765625 71.78125 18.9375 73 
Q 24.125 74.21875 28.421875 74.21875 
Q 39.75 74.21875 46.484375 68.546875 
Q 53.21875 62.890625 53.21875 53.421875 
Q 53.21875 48.921875 51.53125 44.890625 
Q 49.859375 40.875 45.40625 35.40625 
Q 44.1875 33.984375 37.640625 27.21875 
Q 31.109375 20.453125 19.1875 8.296875 
z
" id="DejaVuSans-32"/>
      </defs>
      <g style="fill:#262626;" transform="translate(248.218798 332.858281)scale(0.11 -0.11)">
       <use xlink:href="#DejaVuSans-30"/>
       <use x="63.623047" xlink:href="#DejaVuSans-2e"/>
       <use x="95.410156" xlink:href="#DejaVuSans-32"/>
      </g>
     </g>
    </g>
    <g id="xtick_3">
     <g id="line2d_3">
      <path clip-path="url(#p8674975347)" d="M 333.931034 315 
L 333.931034 43.2 
" style="fill:none;stroke:#ffffff;stroke-linecap:round;"/>
     </g>
     <g id="text_3">
      <!-- 0.4 -->
      <defs>
       <path d="M 37.796875 64.3125 
L 12.890625 25.390625 
L 37.796875 25.390625 
z
M 35.203125 72.90625 
L 47.609375 72.90625 
L 47.609375 25.390625 
L 58.015625 25.390625 
L 58.015625 17.1875 
L 47.609375 17.1875 
L 47.609375 0 
L 37.796875 0 
L 37.796875 17.1875 
L 4.890625 17.1875 
L 4.890625 26.703125 
z
" id="DejaVuSans-34"/>
      </defs>
      <g style="fill:#262626;" transform="translate(325.184316 332.858281)scale(0.11 -0.11)">
       <use xlink:href="#DejaVuSans-30"/>
       <use x="63.623047" xlink:href="#DejaVuSans-2e"/>
       <use x="95.410156" xlink:href="#DejaVuSans-34"/>
      </g>
     </g>
    </g>
    <g id="xtick_4">
     <g id="line2d_4">
      <path clip-path="url(#p8674975347)" d="M 410.896552 315 
L 410.896552 43.2 
" style="fill:none;stroke:#ffffff;stroke-linecap:round;"/>
     </g>
     <g id="text_4">
      <!-- 0.6 -->
      <defs>
       <path d="M 33.015625 40.375 
Q 26.375 40.375 22.484375 35.828125 
Q 18.609375 31.296875 18.609375 23.390625 
Q 18.609375 15.53125 22.484375 10.953125 
Q 26.375 6.390625 33.015625 6.390625 
Q 39.65625 6.390625 43.53125 10.953125 
Q 47.40625 15.53125 47.40625 23.390625 
Q 47.40625 31.296875 43.53125 35.828125 
Q 39.65625 40.375 33.015625 40.375 
z
M 52.59375 71.296875 
L 52.59375 62.3125 
Q 48.875 64.0625 45.09375 64.984375 
Q 41.3125 65.921875 37.59375 65.921875 
Q 27.828125 65.921875 22.671875 59.328125 
Q 17.53125 52.734375 16.796875 39.40625 
Q 19.671875 43.65625 24.015625 45.921875 
Q 28.375 48.1875 33.59375 48.1875 
Q 44.578125 48.1875 50.953125 41.515625 
Q 57.328125 34.859375 57.328125 23.390625 
Q 57.328125 12.15625 50.6875 5.359375 
Q 44.046875 -1.421875 33.015625 -1.421875 
Q 20.359375 -1.421875 13.671875 8.265625 
Q 6.984375 17.96875 6.984375 36.375 
Q 6.984375 53.65625 15.1875 63.9375 
Q 23.390625 74.21875 37.203125 74.21875 
Q 40.921875 74.21875 44.703125 73.484375 
Q 48.484375 72.75 52.59375 71.296875 
z
" id="DejaVuSans-36"/>
      </defs>
      <g style="fill:#262626;" transform="translate(402.149833 332.858281)scale(0.11 -0.11)">
       <use xlink:href="#DejaVuSans-30"/>
       <use x="63.623047" xlink:href="#DejaVuSans-2e"/>
       <use x="95.410156" xlink:href="#DejaVuSans-36"/>
      </g>
     </g>
    </g>
    <g id="xtick_5">
     <g id="line2d_5">
      <path clip-path="url(#p8674975347)" d="M 487.862069 315 
L 487.862069 43.2 
" style="fill:none;stroke:#ffffff;stroke-linecap:round;"/>
     </g>
     <g id="text_5">
      <!-- 0.8 -->
      <defs>
       <path d="M 31.78125 34.625 
Q 24.75 34.625 20.71875 30.859375 
Q 16.703125 27.09375 16.703125 20.515625 
Q 16.703125 13.921875 20.71875 10.15625 
Q 24.75 6.390625 31.78125 6.390625 
Q 38.8125 6.390625 42.859375 10.171875 
Q 46.921875 13.96875 46.921875 20.515625 
Q 46.921875 27.09375 42.890625 30.859375 
Q 38.875 34.625 31.78125 34.625 
z
M 21.921875 38.8125 
Q 15.578125 40.375 12.03125 44.71875 
Q 8.5 49.078125 8.5 55.328125 
Q 8.5 64.0625 14.71875 69.140625 
Q 20.953125 74.21875 31.78125 74.21875 
Q 42.671875 74.21875 48.875 69.140625 
Q 55.078125 64.0625 55.078125 55.328125 
Q 55.078125 49.078125 51.53125 44.71875 
Q 48 40.375 41.703125 38.8125 
Q 48.828125 37.15625 52.796875 32.3125 
Q 56.78125 27.484375 56.78125 20.515625 
Q 56.78125 9.90625 50.3125 4.234375 
Q 43.84375 -1.421875 31.78125 -1.421875 
Q 19.734375 -1.421875 13.25 4.234375 
Q 6.78125 9.90625 6.78125 20.515625 
Q 6.78125 27.484375 10.78125 32.3125 
Q 14.796875 37.15625 21.921875 38.8125 
z
M 18.3125 54.390625 
Q 18.3125 48.734375 21.84375 45.5625 
Q 25.390625 42.390625 31.78125 42.390625 
Q 38.140625 42.390625 41.71875 45.5625 
Q 45.3125 48.734375 45.3125 54.390625 
Q 45.3125 60.0625 41.71875 63.234375 
Q 38.140625 66.40625 31.78125 66.40625 
Q 25.390625 66.40625 21.84375 63.234375 
Q 18.3125 60.0625 18.3125 54.390625 
z
" id="DejaVuSans-38"/>
      </defs>
      <g style="fill:#262626;" transform="translate(479.11535 332.858281)scale(0.11 -0.11)">
       <use xlink:href="#DejaVuSans-30"/>
       <use x="63.623047" xlink:href="#DejaVuSans-2e"/>
       <use x="95.410156" xlink:href="#DejaVuSans-38"/>
      </g>
     </g>
    </g>
    <g id="xtick_6">
     <g id="line2d_6">
      <path clip-path="url(#p8674975347)" d="M 564.827586 315 
L 564.827586 43.2 
" style="fill:none;stroke:#ffffff;stroke-linecap:round;"/>
     </g>
     <g id="text_6">
      <!-- 1.0 -->
      <defs>
       <path d="M 12.40625 8.296875 
L 28.515625 8.296875 
L 28.515625 63.921875 
L 10.984375 60.40625 
L 10.984375 69.390625 
L 28.421875 72.90625 
L 38.28125 72.90625 
L 38.28125 8.296875 
L 54.390625 8.296875 
L 54.390625 0 
L 12.40625 0 
z
" id="DejaVuSans-31"/>
      </defs>
      <g style="fill:#262626;" transform="translate(556.080867 332.858281)scale(0.11 -0.11)">
       <use xlink:href="#DejaVuSans-31"/>
       <use x="63.623047" xlink:href="#DejaVuSans-2e"/>
       <use x="95.410156" xlink:href="#DejaVuSans-30"/>
      </g>
     </g>
    </g>
    <g id="text_7">
     <!-- False Positive Rate -->
     <defs>
      <path d="M 9.8125 72.90625 
L 51.703125 72.90625 
L 51.703125 64.59375 
L 19.671875 64.59375 
L 19.671875 43.109375 
L 48.578125 43.109375 
L 48.578125 34.8125 
L 19.671875 34.8125 
L 19.671875 0 
L 9.8125 0 
z
" id="DejaVuSans-46"/>
      <path d="M 34.28125 27.484375 
Q 23.390625 27.484375 19.1875 25 
Q 14.984375 22.515625 14.984375 16.5 
Q 14.984375 11.71875 18.140625 8.90625 
Q 21.296875 6.109375 26.703125 6.109375 
Q 34.1875 6.109375 38.703125 11.40625 
Q 43.21875 16.703125 43.21875 25.484375 
L 43.21875 27.484375 
z
M 52.203125 31.203125 
L 52.203125 0 
L 43.21875 0 
L 43.21875 8.296875 
Q 40.140625 3.328125 35.546875 0.953125 
Q 30.953125 -1.421875 24.3125 -1.421875 
Q 15.921875 -1.421875 10.953125 3.296875 
Q 6 8.015625 6 15.921875 
Q 6 25.140625 12.171875 29.828125 
Q 18.359375 34.515625 30.609375 34.515625 
L 43.21875 34.515625 
L 43.21875 35.40625 
Q 43.21875 41.609375 39.140625 45 
Q 35.0625 48.390625 27.6875 48.390625 
Q 23 48.390625 18.546875 47.265625 
Q 14.109375 46.140625 10.015625 43.890625 
L 10.015625 52.203125 
Q 14.9375 54.109375 19.578125 55.046875 
Q 24.21875 56 28.609375 56 
Q 40.484375 56 46.34375 49.84375 
Q 52.203125 43.703125 52.203125 31.203125 
z
" id="DejaVuSans-61"/>
      <path d="M 9.421875 75.984375 
L 18.40625 75.984375 
L 18.40625 0 
L 9.421875 0 
z
" id="DejaVuSans-6c"/>
      <path d="M 44.28125 53.078125 
L 44.28125 44.578125 
Q 40.484375 46.53125 36.375 47.5 
Q 32.28125 48.484375 27.875 48.484375 
Q 21.1875 48.484375 17.84375 46.4375 
Q 14.5 44.390625 14.5 40.28125 
Q 14.5 37.15625 16.890625 35.375 
Q 19.28125 33.59375 26.515625 31.984375 
L 29.59375 31.296875 
Q 39.15625 29.25 43.1875 25.515625 
Q 47.21875 21.78125 47.21875 15.09375 
Q 47.21875 7.46875 41.1875 3.015625 
Q 35.15625 -1.421875 24.609375 -1.421875 
Q 20.21875 -1.421875 15.453125 -0.5625 
Q 10.6875 0.296875 5.421875 2 
L 5.421875 11.28125 
Q 10.40625 8.6875 15.234375 7.390625 
Q 20.0625 6.109375 24.8125 6.109375 
Q 31.15625 6.109375 34.5625 8.28125 
Q 37.984375 10.453125 37.984375 14.40625 
Q 37.984375 18.0625 35.515625 20.015625 
Q 33.0625 21.96875 24.703125 23.78125 
L 21.578125 24.515625 
Q 13.234375 26.265625 9.515625 29.90625 
Q 5.8125 33.546875 5.8125 39.890625 
Q 5.8125 47.609375 11.28125 51.796875 
Q 16.75 56 26.8125 56 
Q 31.78125 56 36.171875 55.265625 
Q 40.578125 54.546875 44.28125 53.078125 
z
" id="DejaVuSans-73"/>
      <path d="M 56.203125 29.59375 
L 56.203125 25.203125 
L 14.890625 25.203125 
Q 15.484375 15.921875 20.484375 11.0625 
Q 25.484375 6.203125 34.421875 6.203125 
Q 39.59375 6.203125 44.453125 7.46875 
Q 49.3125 8.734375 54.109375 11.28125 
L 54.109375 2.78125 
Q 49.265625 0.734375 44.1875 -0.34375 
Q 39.109375 -1.421875 33.890625 -1.421875 
Q 20.796875 -1.421875 13.15625 6.1875 
Q 5.515625 13.8125 5.515625 26.8125 
Q 5.515625 40.234375 12.765625 48.109375 
Q 20.015625 56 32.328125 56 
Q 43.359375 56 49.78125 48.890625 
Q 56.203125 41.796875 56.203125 29.59375 
z
M 47.21875 32.234375 
Q 47.125 39.59375 43.09375 43.984375 
Q 39.0625 48.390625 32.421875 48.390625 
Q 24.90625 48.390625 20.390625 44.140625 
Q 15.875 39.890625 15.1875 32.171875 
z
" id="DejaVuSans-65"/>
      <path id="DejaVuSans-20"/>
      <path d="M 19.671875 64.796875 
L 19.671875 37.40625 
L 32.078125 37.40625 
Q 38.96875 37.40625 42.71875 40.96875 
Q 46.484375 44.53125 46.484375 51.125 
Q 46.484375 57.671875 42.71875 61.234375 
Q 38.96875 64.796875 32.078125 64.796875 
z
M 9.8125 72.90625 
L 32.078125 72.90625 
Q 44.34375 72.90625 50.609375 67.359375 
Q 56.890625 61.8125 56.890625 51.125 
Q 56.890625 40.328125 50.609375 34.8125 
Q 44.34375 29.296875 32.078125 29.296875 
L 19.671875 29.296875 
L 19.671875 0 
L 9.8125 0 
z
" id="DejaVuSans-50"/>
      <path d="M 30.609375 48.390625 
Q 23.390625 48.390625 19.1875 42.75 
Q 14.984375 37.109375 14.984375 27.296875 
Q 14.984375 17.484375 19.15625 11.84375 
Q 23.34375 6.203125 30.609375 6.203125 
Q 37.796875 6.203125 41.984375 11.859375 
Q 46.1875 17.53125 46.1875 27.296875 
Q 46.1875 37.015625 41.984375 42.703125 
Q 37.796875 48.390625 30.609375 48.390625 
z
M 30.609375 56 
Q 42.328125 56 49.015625 48.375 
Q 55.71875 40.765625 55.71875 27.296875 
Q 55.71875 13.875 49.015625 6.21875 
Q 42.328125 -1.421875 30.609375 -1.421875 
Q 18.84375 -1.421875 12.171875 6.21875 
Q 5.515625 13.875 5.515625 27.296875 
Q 5.515625 40.765625 12.171875 48.375 
Q 18.84375 56 30.609375 56 
z
" id="DejaVuSans-6f"/>
      <path d="M 9.421875 54.6875 
L 18.40625 54.6875 
L 18.40625 0 
L 9.421875 0 
z
M 9.421875 75.984375 
L 18.40625 75.984375 
L 18.40625 64.59375 
L 9.421875 64.59375 
z
" id="DejaVuSans-69"/>
      <path d="M 18.3125 70.21875 
L 18.3125 54.6875 
L 36.8125 54.6875 
L 36.8125 47.703125 
L 18.3125 47.703125 
L 18.3125 18.015625 
Q 18.3125 11.328125 20.140625 9.421875 
Q 21.96875 7.515625 27.59375 7.515625 
L 36.8125 7.515625 
L 36.8125 0 
L 27.59375 0 
Q 17.1875 0 13.234375 3.875 
Q 9.28125 7.765625 9.28125 18.015625 
L 9.28125 47.703125 
L 2.6875 47.703125 
L 2.6875 54.6875 
L 9.28125 54.6875 
L 9.28125 70.21875 
z
" id="DejaVuSans-74"/>
      <path d="M 2.984375 54.6875 
L 12.5 54.6875 
L 29.59375 8.796875 
L 46.6875 54.6875 
L 56.203125 54.6875 
L 35.6875 0 
L 23.484375 0 
z
" id="DejaVuSans-76"/>
      <path d="M 44.390625 34.1875 
Q 47.5625 33.109375 50.5625 29.59375 
Q 53.5625 26.078125 56.59375 19.921875 
L 66.609375 0 
L 56 0 
L 46.6875 18.703125 
Q 43.0625 26.03125 39.671875 28.421875 
Q 36.28125 30.8125 30.421875 30.8125 
L 19.671875 30.8125 
L 19.671875 0 
L 9.8125 0 
L 9.8125 72.90625 
L 32.078125 72.90625 
Q 44.578125 72.90625 50.734375 67.671875 
Q 56.890625 62.453125 56.890625 51.90625 
Q 56.890625 45.015625 53.6875 40.46875 
Q 50.484375 35.9375 44.390625 34.1875 
z
M 19.671875 64.796875 
L 19.671875 38.921875 
L 32.078125 38.921875 
Q 39.203125 38.921875 42.84375 42.21875 
Q 46.484375 45.515625 46.484375 51.90625 
Q 46.484375 58.296875 42.84375 61.546875 
Q 39.203125 64.796875 32.078125 64.796875 
z
" id="DejaVuSans-52"/>
     </defs>
     <g style="fill:#262626;" transform="translate(315.767231 348.264063)scale(0.12 -0.12)">
      <use xlink:href="#DejaVuSans-46"/>
      <use x="57.378906" xlink:href="#DejaVuSans-61"/>
      <use x="118.658203" xlink:href="#DejaVuSans-6c"/>
      <use x="146.441406" xlink:href="#DejaVuSans-73"/>
      <use x="198.541016" xlink:href="#DejaVuSans-65"/>
      <use x="260.064453" xlink:href="#DejaVuSans-20"/>
      <use x="291.851562" xlink:href="#DejaVuSans-50"/>
      <use x="352.107422" xlink:href="#DejaVuSans-6f"/>
      <use x="413.289062" xlink:href="#DejaVuSans-73"/>
      <use x="465.388672" xlink:href="#DejaVuSans-69"/>
      <use x="493.171875" xlink:href="#DejaVuSans-74"/>
      <use x="532.380859" xlink:href="#DejaVuSans-69"/>
      <use x="560.164062" xlink:href="#DejaVuSans-76"/>
      <use x="619.34375" xlink:href="#DejaVuSans-65"/>
      <use x="680.867188" xlink:href="#DejaVuSans-20"/>
      <use x="712.654297" xlink:href="#DejaVuSans-52"/>
      <use x="782.105469" xlink:href="#DejaVuSans-61"/>
      <use x="843.384766" xlink:href="#DejaVuSans-74"/>
      <use x="882.59375" xlink:href="#DejaVuSans-65"/>
     </g>
    </g>
   </g>
   <g id="matplotlib.axis_2">
    <g id="ytick_1">
     <g id="line2d_7">
      <path clip-path="url(#p8674975347)" d="M 180 315 
L 564.827586 315 
" style="fill:none;stroke:#ffffff;stroke-linecap:round;"/>
     </g>
     <g id="text_8">
      <!-- 0.0 -->
      <g style="fill:#262626;" transform="translate(153.006563 319.179141)scale(0.11 -0.11)">
       <use xlink:href="#DejaVuSans-30"/>
       <use x="63.623047" xlink:href="#DejaVuSans-2e"/>
       <use x="95.410156" xlink:href="#DejaVuSans-30"/>
      </g>
     </g>
    </g>
    <g id="ytick_2">
     <g id="line2d_8">
      <path clip-path="url(#p8674975347)" d="M 180 260.64 
L 564.827586 260.64 
" style="fill:none;stroke:#ffffff;stroke-linecap:round;"/>
     </g>
     <g id="text_9">
      <!-- 0.2 -->
      <g style="fill:#262626;" transform="translate(153.006563 264.819141)scale(0.11 -0.11)">
       <use xlink:href="#DejaVuSans-30"/>
       <use x="63.623047" xlink:href="#DejaVuSans-2e"/>
       <use x="95.410156" xlink:href="#DejaVuSans-32"/>
      </g>
     </g>
    </g>
    <g id="ytick_3">
     <g id="line2d_9">
      <path clip-path="url(#p8674975347)" d="M 180 206.28 
L 564.827586 206.28 
" style="fill:none;stroke:#ffffff;stroke-linecap:round;"/>
     </g>
     <g id="text_10">
      <!-- 0.4 -->
      <g style="fill:#262626;" transform="translate(153.006563 210.459141)scale(0.11 -0.11)">
       <use xlink:href="#DejaVuSans-30"/>
       <use x="63.623047" xlink:href="#DejaVuSans-2e"/>
       <use x="95.410156" xlink:href="#DejaVuSans-34"/>
      </g>
     </g>
    </g>
    <g id="ytick_4">
     <g id="line2d_10">
      <path clip-path="url(#p8674975347)" d="M 180 151.92 
L 564.827586 151.92 
" style="fill:none;stroke:#ffffff;stroke-linecap:round;"/>
     </g>
     <g id="text_11">
      <!-- 0.6 -->
      <g style="fill:#262626;" transform="translate(153.006563 156.099141)scale(0.11 -0.11)">
       <use xlink:href="#DejaVuSans-30"/>
       <use x="63.623047" xlink:href="#DejaVuSans-2e"/>
       <use x="95.410156" xlink:href="#DejaVuSans-36"/>
      </g>
     </g>
    </g>
    <g id="ytick_5">
     <g id="line2d_11">
      <path clip-path="url(#p8674975347)" d="M 180 97.56 
L 564.827586 97.56 
" style="fill:none;stroke:#ffffff;stroke-linecap:round;"/>
     </g>
     <g id="text_12">
      <!-- 0.8 -->
      <g style="fill:#262626;" transform="translate(153.006563 101.739141)scale(0.11 -0.11)">
       <use xlink:href="#DejaVuSans-30"/>
       <use x="63.623047" xlink:href="#DejaVuSans-2e"/>
       <use x="95.410156" xlink:href="#DejaVuSans-38"/>
      </g>
     </g>
    </g>
    <g id="ytick_6">
     <g id="line2d_12">
      <path clip-path="url(#p8674975347)" d="M 180 43.2 
L 564.827586 43.2 
" style="fill:none;stroke:#ffffff;stroke-linecap:round;"/>
     </g>
     <g id="text_13">
      <!-- 1.0 -->
      <g style="fill:#262626;" transform="translate(153.006563 47.379141)scale(0.11 -0.11)">
       <use xlink:href="#DejaVuSans-31"/>
       <use x="63.623047" xlink:href="#DejaVuSans-2e"/>
       <use x="95.410156" xlink:href="#DejaVuSans-30"/>
      </g>
     </g>
    </g>
    <g id="text_14">
     <!-- True Positive Rate -->
     <defs>
      <path d="M -0.296875 72.90625 
L 61.375 72.90625 
L 61.375 64.59375 
L 35.5 64.59375 
L 35.5 0 
L 25.59375 0 
L 25.59375 64.59375 
L -0.296875 64.59375 
z
" id="DejaVuSans-54"/>
      <path d="M 41.109375 46.296875 
Q 39.59375 47.171875 37.8125 47.578125 
Q 36.03125 48 33.890625 48 
Q 26.265625 48 22.1875 43.046875 
Q 18.109375 38.09375 18.109375 28.8125 
L 18.109375 0 
L 9.078125 0 
L 9.078125 54.6875 
L 18.109375 54.6875 
L 18.109375 46.1875 
Q 20.953125 51.171875 25.484375 53.578125 
Q 30.03125 56 36.53125 56 
Q 37.453125 56 38.578125 55.875 
Q 39.703125 55.765625 41.0625 55.515625 
z
" id="DejaVuSans-72"/>
      <path d="M 8.5 21.578125 
L 8.5 54.6875 
L 17.484375 54.6875 
L 17.484375 21.921875 
Q 17.484375 14.15625 20.5 10.265625 
Q 23.53125 6.390625 29.59375 6.390625 
Q 36.859375 6.390625 41.078125 11.03125 
Q 45.3125 15.671875 45.3125 23.6875 
L 45.3125 54.6875 
L 54.296875 54.6875 
L 54.296875 0 
L 45.3125 0 
L 45.3125 8.40625 
Q 42.046875 3.421875 37.71875 1 
Q 33.40625 -1.421875 27.6875 -1.421875 
Q 18.265625 -1.421875 13.375 4.4375 
Q 8.5 10.296875 8.5 21.578125 
z
M 31.109375 56 
z
" id="DejaVuSans-75"/>
     </defs>
     <g style="fill:#262626;" transform="translate(146.510938 233.755313)rotate(-90)scale(0.12 -0.12)">
      <use xlink:href="#DejaVuSans-54"/>
      <use x="60.865234" xlink:href="#DejaVuSans-72"/>
      <use x="101.978516" xlink:href="#DejaVuSans-75"/>
      <use x="165.357422" xlink:href="#DejaVuSans-65"/>
      <use x="226.880859" xlink:href="#DejaVuSans-20"/>
      <use x="258.667969" xlink:href="#DejaVuSans-50"/>
      <use x="318.923828" xlink:href="#DejaVuSans-6f"/>
      <use x="380.105469" xlink:href="#DejaVuSans-73"/>
      <use x="432.205078" xlink:href="#DejaVuSans-69"/>
      <use x="459.988281" xlink:href="#DejaVuSans-74"/>
      <use x="499.197266" xlink:href="#DejaVuSans-69"/>
      <use x="526.980469" xlink:href="#DejaVuSans-76"/>
      <use x="586.160156" xlink:href="#DejaVuSans-65"/>
      <use x="647.683594" xlink:href="#DejaVuSans-20"/>
      <use x="679.470703" xlink:href="#DejaVuSans-52"/>
      <use x="748.921875" xlink:href="#DejaVuSans-61"/>
      <use x="810.201172" xlink:href="#DejaVuSans-74"/>
      <use x="849.410156" xlink:href="#DejaVuSans-65"/>
     </g>
    </g>
   </g>
   <g id="PathCollection_1">
    <defs>
     <path d="M 0 3 
C 0.795609 3 1.55874 2.683901 2.12132 2.12132 
C 2.683901 1.55874 3 0.795609 3 0 
C 3 -0.795609 2.683901 -1.55874 2.12132 -2.12132 
C 1.55874 -2.683901 0.795609 -3 0 -3 
C -0.795609 -3 -1.55874 -2.683901 -2.12132 -2.12132 
C -2.683901 -1.55874 -3 -0.795609 -3 0 
C -3 0.795609 -2.683901 1.55874 -2.12132 2.12132 
C -1.55874 2.683901 -0.795609 3 0 3 
z
" id="mcd0f441191" style="stroke:#4c72b0;"/>
    </defs>
    <g clip-path="url(#p8674975347)">
     <use style="fill:#4c72b0;stroke:#4c72b0;" x="181.202586" xlink:href="#mcd0f441191" y="301.41"/>
     <use style="fill:#4c72b0;stroke:#4c72b0;" x="184.289359" xlink:href="#mcd0f441191" y="293.360186"/>
     <use style="fill:#4c72b0;stroke:#4c72b0;" x="187.376132" xlink:href="#mcd0f441191" y="285.595558"/>
     <use style="fill:#4c72b0;stroke:#4c72b0;" x="190.462905" xlink:href="#mcd0f441191" y="278.460496"/>
     <use style="fill:#4c72b0;stroke:#4c72b0;" x="193.549678" xlink:href="#mcd0f441191" y="271.325434"/>
     <use style="fill:#4c72b0;stroke:#4c72b0;" x="196.636451" xlink:href="#mcd0f441191" y="264.190372"/>
     <use style="fill:#4c72b0;stroke:#4c72b0;" x="199.723224" xlink:href="#mcd0f441191" y="257.05531"/>
     <use style="fill:#4c72b0;stroke:#4c72b0;" x="202.809997" xlink:href="#mcd0f441191" y="249.920248"/>
     <use style="fill:#4c72b0;stroke:#4c72b0;" x="205.896769" xlink:href="#mcd0f441191" y="245.905782"/>
     <use style="fill:#4c72b0;stroke:#4c72b0;" x="208.983542" xlink:href="#mcd0f441191" y="243.991497"/>
     <use style="fill:#4c72b0;stroke:#4c72b0;" x="212.070315" xlink:href="#mcd0f441191" y="242.077212"/>
     <use style="fill:#4c72b0;stroke:#4c72b0;" x="215.157088" xlink:href="#mcd0f441191" y="240.162927"/>
     <use style="fill:#4c72b0;stroke:#4c72b0;" x="218.243861" xlink:href="#mcd0f441191" y="238.248642"/>
     <use style="fill:#4c72b0;stroke:#4c72b0;" x="221.330634" xlink:href="#mcd0f441191" y="236.334357"/>
     <use style="fill:#4c72b0;stroke:#4c72b0;" x="224.417407" xlink:href="#mcd0f441191" y="234.420072"/>
     <use style="fill:#4c72b0;stroke:#4c72b0;" x="227.50418" xlink:href="#mcd0f441191" y="232.505787"/>
     <use style="fill:#4c72b0;stroke:#4c72b0;" x="230.590953" xlink:href="#mcd0f441191" y="230.591502"/>
     <use style="fill:#4c72b0;stroke:#4c72b0;" x="233.677726" xlink:href="#mcd0f441191" y="228.677217"/>
     <use style="fill:#4c72b0;stroke:#4c72b0;" x="236.764498" xlink:href="#mcd0f441191" y="226.762932"/>
     <use style="fill:#4c72b0;stroke:#4c72b0;" x="239.851271" xlink:href="#mcd0f441191" y="224.848647"/>
     <use style="fill:#4c72b0;stroke:#4c72b0;" x="242.938044" xlink:href="#mcd0f441191" y="222.934363"/>
     <use style="fill:#4c72b0;stroke:#4c72b0;" x="246.024817" xlink:href="#mcd0f441191" y="221.020078"/>
     <use style="fill:#4c72b0;stroke:#4c72b0;" x="249.11159" xlink:href="#mcd0f441191" y="219.105793"/>
     <use style="fill:#4c72b0;stroke:#4c72b0;" x="252.198363" xlink:href="#mcd0f441191" y="217.191508"/>
     <use style="fill:#4c72b0;stroke:#4c72b0;" x="255.285136" xlink:href="#mcd0f441191" y="215.277223"/>
     <use style="fill:#4c72b0;stroke:#4c72b0;" x="258.371909" xlink:href="#mcd0f441191" y="213.362938"/>
     <use style="fill:#4c72b0;stroke:#4c72b0;" x="261.458682" xlink:href="#mcd0f441191" y="211.448653"/>
     <use style="fill:#4c72b0;stroke:#4c72b0;" x="264.545455" xlink:href="#mcd0f441191" y="209.534368"/>
     <use style="fill:#4c72b0;stroke:#4c72b0;" x="267.632227" xlink:href="#mcd0f441191" y="207.620083"/>
     <use style="fill:#4c72b0;stroke:#4c72b0;" x="270.719" xlink:href="#mcd0f441191" y="205.818387"/>
     <use style="fill:#4c72b0;stroke:#4c72b0;" x="273.805773" xlink:href="#mcd0f441191" y="204.279452"/>
     <use style="fill:#4c72b0;stroke:#4c72b0;" x="276.892546" xlink:href="#mcd0f441191" y="202.740517"/>
     <use style="fill:#4c72b0;stroke:#4c72b0;" x="279.979319" xlink:href="#mcd0f441191" y="201.201582"/>
     <use style="fill:#4c72b0;stroke:#4c72b0;" x="283.066092" xlink:href="#mcd0f441191" y="199.662647"/>
     <use style="fill:#4c72b0;stroke:#4c72b0;" x="286.152865" xlink:href="#mcd0f441191" y="198.123712"/>
     <use style="fill:#4c72b0;stroke:#4c72b0;" x="289.239638" xlink:href="#mcd0f441191" y="196.584777"/>
     <use style="fill:#4c72b0;stroke:#4c72b0;" x="292.326411" xlink:href="#mcd0f441191" y="195.045842"/>
     <use style="fill:#4c72b0;stroke:#4c72b0;" x="295.413184" xlink:href="#mcd0f441191" y="193.506907"/>
     <use style="fill:#4c72b0;stroke:#4c72b0;" x="298.499956" xlink:href="#mcd0f441191" y="191.967972"/>
     <use style="fill:#4c72b0;stroke:#4c72b0;" x="301.586729" xlink:href="#mcd0f441191" y="190.429037"/>
     <use style="fill:#4c72b0;stroke:#4c72b0;" x="304.673502" xlink:href="#mcd0f441191" y="188.890102"/>
     <use style="fill:#4c72b0;stroke:#4c72b0;" x="307.760275" xlink:href="#mcd0f441191" y="187.351168"/>
     <use style="fill:#4c72b0;stroke:#4c72b0;" x="310.847048" xlink:href="#mcd0f441191" y="185.812233"/>
     <use style="fill:#4c72b0;stroke:#4c72b0;" x="313.933821" xlink:href="#mcd0f441191" y="184.273298"/>
     <use style="fill:#4c72b0;stroke:#4c72b0;" x="317.020594" xlink:href="#mcd0f441191" y="182.734363"/>
     <use style="fill:#4c72b0;stroke:#4c72b0;" x="320.107367" xlink:href="#mcd0f441191" y="181.195428"/>
     <use style="fill:#4c72b0;stroke:#4c72b0;" x="323.19414" xlink:href="#mcd0f441191" y="179.656493"/>
     <use style="fill:#4c72b0;stroke:#4c72b0;" x="326.280913" xlink:href="#mcd0f441191" y="178.481425"/>
     <use style="fill:#4c72b0;stroke:#4c72b0;" x="329.367685" xlink:href="#mcd0f441191" y="177.512466"/>
     <use style="fill:#4c72b0;stroke:#4c72b0;" x="332.454458" xlink:href="#mcd0f441191" y="176.543507"/>
     <use style="fill:#4c72b0;stroke:#4c72b0;" x="335.541231" xlink:href="#mcd0f441191" y="175.574548"/>
     <use style="fill:#4c72b0;stroke:#4c72b0;" x="338.628004" xlink:href="#mcd0f441191" y="174.605589"/>
     <use style="fill:#4c72b0;stroke:#4c72b0;" x="341.714777" xlink:href="#mcd0f441191" y="173.63663"/>
     <use style="fill:#4c72b0;stroke:#4c72b0;" x="344.80155" xlink:href="#mcd0f441191" y="172.667671"/>
     <use style="fill:#4c72b0;stroke:#4c72b0;" x="347.888323" xlink:href="#mcd0f441191" y="171.698712"/>
     <use style="fill:#4c72b0;stroke:#4c72b0;" x="350.975096" xlink:href="#mcd0f441191" y="170.729753"/>
     <use style="fill:#4c72b0;stroke:#4c72b0;" x="354.061869" xlink:href="#mcd0f441191" y="169.760794"/>
     <use style="fill:#4c72b0;stroke:#4c72b0;" x="357.148642" xlink:href="#mcd0f441191" y="168.791835"/>
     <use style="fill:#4c72b0;stroke:#4c72b0;" x="360.235414" xlink:href="#mcd0f441191" y="167.822876"/>
     <use style="fill:#4c72b0;stroke:#4c72b0;" x="363.322187" xlink:href="#mcd0f441191" y="166.853917"/>
     <use style="fill:#4c72b0;stroke:#4c72b0;" x="366.40896" xlink:href="#mcd0f441191" y="165.884958"/>
     <use style="fill:#4c72b0;stroke:#4c72b0;" x="369.495733" xlink:href="#mcd0f441191" y="164.915999"/>
     <use style="fill:#4c72b0;stroke:#4c72b0;" x="372.582506" xlink:href="#mcd0f441191" y="163.94704"/>
     <use style="fill:#4c72b0;stroke:#4c72b0;" x="375.669279" xlink:href="#mcd0f441191" y="162.978081"/>
     <use style="fill:#4c72b0;stroke:#4c72b0;" x="378.756052" xlink:href="#mcd0f441191" y="162.009122"/>
     <use style="fill:#4c72b0;stroke:#4c72b0;" x="381.842825" xlink:href="#mcd0f441191" y="161.040163"/>
     <use style="fill:#4c72b0;stroke:#4c72b0;" x="384.929598" xlink:href="#mcd0f441191" y="160.071204"/>
     <use style="fill:#4c72b0;stroke:#4c72b0;" x="388.016371" xlink:href="#mcd0f441191" y="159.102245"/>
     <use style="fill:#4c72b0;stroke:#4c72b0;" x="391.103144" xlink:href="#mcd0f441191" y="158.133286"/>
     <use style="fill:#4c72b0;stroke:#4c72b0;" x="394.189916" xlink:href="#mcd0f441191" y="157.164327"/>
     <use style="fill:#4c72b0;stroke:#4c72b0;" x="397.276689" xlink:href="#mcd0f441191" y="156.195368"/>
     <use style="fill:#4c72b0;stroke:#4c72b0;" x="400.363462" xlink:href="#mcd0f441191" y="155.226409"/>
     <use style="fill:#4c72b0;stroke:#4c72b0;" x="403.450235" xlink:href="#mcd0f441191" y="154.257449"/>
     <use style="fill:#4c72b0;stroke:#4c72b0;" x="406.537008" xlink:href="#mcd0f441191" y="153.28849"/>
     <use style="fill:#4c72b0;stroke:#4c72b0;" x="409.623781" xlink:href="#mcd0f441191" y="152.319531"/>
     <use style="fill:#4c72b0;stroke:#4c72b0;" x="412.710554" xlink:href="#mcd0f441191" y="151.270371"/>
     <use style="fill:#4c72b0;stroke:#4c72b0;" x="415.797327" xlink:href="#mcd0f441191" y="150.164939"/>
     <use style="fill:#4c72b0;stroke:#4c72b0;" x="418.8841" xlink:href="#mcd0f441191" y="149.059507"/>
     <use style="fill:#4c72b0;stroke:#4c72b0;" x="421.970873" xlink:href="#mcd0f441191" y="147.954075"/>
     <use style="fill:#4c72b0;stroke:#4c72b0;" x="425.057645" xlink:href="#mcd0f441191" y="146.848643"/>
     <use style="fill:#4c72b0;stroke:#4c72b0;" x="428.144418" xlink:href="#mcd0f441191" y="145.743211"/>
     <use style="fill:#4c72b0;stroke:#4c72b0;" x="431.231191" xlink:href="#mcd0f441191" y="144.637778"/>
     <use style="fill:#4c72b0;stroke:#4c72b0;" x="434.317964" xlink:href="#mcd0f441191" y="143.532346"/>
     <use style="fill:#4c72b0;stroke:#4c72b0;" x="437.404737" xlink:href="#mcd0f441191" y="142.426914"/>
     <use style="fill:#4c72b0;stroke:#4c72b0;" x="440.49151" xlink:href="#mcd0f441191" y="141.321482"/>
     <use style="fill:#4c72b0;stroke:#4c72b0;" x="443.578283" xlink:href="#mcd0f441191" y="140.21605"/>
     <use style="fill:#4c72b0;stroke:#4c72b0;" x="446.665056" xlink:href="#mcd0f441191" y="139.110618"/>
     <use style="fill:#4c72b0;stroke:#4c72b0;" x="449.751829" xlink:href="#mcd0f441191" y="138.005186"/>
     <use style="fill:#4c72b0;stroke:#4c72b0;" x="452.838602" xlink:href="#mcd0f441191" y="136.899754"/>
     <use style="fill:#4c72b0;stroke:#4c72b0;" x="455.925374" xlink:href="#mcd0f441191" y="135.794321"/>
     <use style="fill:#4c72b0;stroke:#4c72b0;" x="459.012147" xlink:href="#mcd0f441191" y="134.688889"/>
     <use style="fill:#4c72b0;stroke:#4c72b0;" x="462.09892" xlink:href="#mcd0f441191" y="133.583457"/>
     <use style="fill:#4c72b0;stroke:#4c72b0;" x="465.185693" xlink:href="#mcd0f441191" y="132.478025"/>
     <use style="fill:#4c72b0;stroke:#4c72b0;" x="468.272466" xlink:href="#mcd0f441191" y="131.372593"/>
     <use style="fill:#4c72b0;stroke:#4c72b0;" x="471.359239" xlink:href="#mcd0f441191" y="130.267161"/>
     <use style="fill:#4c72b0;stroke:#4c72b0;" x="474.446012" xlink:href="#mcd0f441191" y="129.161729"/>
     <use style="fill:#4c72b0;stroke:#4c72b0;" x="477.532785" xlink:href="#mcd0f441191" y="128.056296"/>
     <use style="fill:#4c72b0;stroke:#4c72b0;" x="480.619558" xlink:href="#mcd0f441191" y="126.950864"/>
     <use style="fill:#4c72b0;stroke:#4c72b0;" x="483.706331" xlink:href="#mcd0f441191" y="125.845432"/>
     <use style="fill:#4c72b0;stroke:#4c72b0;" x="486.793103" xlink:href="#mcd0f441191" y="124.74"/>
    </g>
   </g>
   <g id="PathCollection_2">
    <defs>
     <path d="M -3 3 
L 3 -3 
M -3 -3 
L 3 3 
" id="md9a8b35ce8" style="stroke:#000000;stroke-width:1.5;"/>
    </defs>
    <g clip-path="url(#p8674975347)">
     <use style="stroke:#000000;stroke-width:1.5;" x="181.202586" xlink:href="#md9a8b35ce8" y="301.41"/>
     <use style="stroke:#000000;stroke-width:1.5;" x="186.413793" xlink:href="#md9a8b35ce8" y="287.82"/>
     <use style="stroke:#000000;stroke-width:1.5;" x="204.051724" xlink:href="#md9a8b35ce8" y="247.05"/>
     <use style="stroke:#000000;stroke-width:1.5;" x="269.793103" xlink:href="#md9a8b35ce8" y="206.28"/>
     <use style="stroke:#000000;stroke-width:1.5;" x="324.310345" xlink:href="#md9a8b35ce8" y="179.1"/>
     <use style="stroke:#000000;stroke-width:1.5;" x="410.896552" xlink:href="#md9a8b35ce8" y="151.92"/>
     <use style="stroke:#000000;stroke-width:1.5;" x="486.793103" xlink:href="#md9a8b35ce8" y="124.74"/>
    </g>
   </g>
   <g id="patch_3">
    <path d="M 180 315 
L 180 43.2 
" style="fill:none;stroke:#ffffff;stroke-linecap:square;stroke-linejoin:miter;stroke-width:1.25;"/>
   </g>
   <g id="patch_4">
    <path d="M 564.827586 315 
L 564.827586 43.2 
" style="fill:none;stroke:#ffffff;stroke-linecap:square;stroke-linejoin:miter;stroke-width:1.25;"/>
   </g>
   <g id="patch_5">
    <path d="M 180 315 
L 564.827586 315 
" style="fill:none;stroke:#ffffff;stroke-linecap:square;stroke-linejoin:miter;stroke-width:1.25;"/>
   </g>
   <g id="patch_6">
    <path d="M 180 43.2 
L 564.827586 43.2 
" style="fill:none;stroke:#ffffff;stroke-linecap:square;stroke-linejoin:miter;stroke-width:1.25;"/>
   </g>
   <g id="legend_1">
    <g id="patch_7">
     <path d="M 397.117117 84.291875 
L 557.127586 84.291875 
Q 559.327586 84.291875 559.327586 82.091875 
L 559.327586 50.9 
Q 559.327586 48.7 557.127586 48.7 
L 397.117117 48.7 
Q 394.917117 48.7 394.917117 50.9 
L 394.917117 82.091875 
Q 394.917117 84.291875 397.117117 84.291875 
z
" style="fill:#eaeaf2;opacity:0.8;stroke:#cccccc;stroke-linejoin:miter;"/>
    </g>
    <g id="PathCollection_3">
     <g>
      <use style="fill:#4c72b0;stroke:#4c72b0;" x="410.317117" xlink:href="#mcd0f441191" y="58.570781"/>
     </g>
    </g>
    <g id="text_15">
     <!-- Resampled ROC Curve -->
     <defs>
      <path d="M 52 44.1875 
Q 55.375 50.25 60.0625 53.125 
Q 64.75 56 71.09375 56 
Q 79.640625 56 84.28125 50.015625 
Q 88.921875 44.046875 88.921875 33.015625 
L 88.921875 0 
L 79.890625 0 
L 79.890625 32.71875 
Q 79.890625 40.578125 77.09375 44.375 
Q 74.3125 48.1875 68.609375 48.1875 
Q 61.625 48.1875 57.5625 43.546875 
Q 53.515625 38.921875 53.515625 30.90625 
L 53.515625 0 
L 44.484375 0 
L 44.484375 32.71875 
Q 44.484375 40.625 41.703125 44.40625 
Q 38.921875 48.1875 33.109375 48.1875 
Q 26.21875 48.1875 22.15625 43.53125 
Q 18.109375 38.875 18.109375 30.90625 
L 18.109375 0 
L 9.078125 0 
L 9.078125 54.6875 
L 18.109375 54.6875 
L 18.109375 46.1875 
Q 21.1875 51.21875 25.484375 53.609375 
Q 29.78125 56 35.6875 56 
Q 41.65625 56 45.828125 52.96875 
Q 50 49.953125 52 44.1875 
z
" id="DejaVuSans-6d"/>
      <path d="M 18.109375 8.203125 
L 18.109375 -20.796875 
L 9.078125 -20.796875 
L 9.078125 54.6875 
L 18.109375 54.6875 
L 18.109375 46.390625 
Q 20.953125 51.265625 25.265625 53.625 
Q 29.59375 56 35.59375 56 
Q 45.5625 56 51.78125 48.09375 
Q 58.015625 40.1875 58.015625 27.296875 
Q 58.015625 14.40625 51.78125 6.484375 
Q 45.5625 -1.421875 35.59375 -1.421875 
Q 29.59375 -1.421875 25.265625 0.953125 
Q 20.953125 3.328125 18.109375 8.203125 
z
M 48.6875 27.296875 
Q 48.6875 37.203125 44.609375 42.84375 
Q 40.53125 48.484375 33.40625 48.484375 
Q 26.265625 48.484375 22.1875 42.84375 
Q 18.109375 37.203125 18.109375 27.296875 
Q 18.109375 17.390625 22.1875 11.75 
Q 26.265625 6.109375 33.40625 6.109375 
Q 40.53125 6.109375 44.609375 11.75 
Q 48.6875 17.390625 48.6875 27.296875 
z
" id="DejaVuSans-70"/>
      <path d="M 45.40625 46.390625 
L 45.40625 75.984375 
L 54.390625 75.984375 
L 54.390625 0 
L 45.40625 0 
L 45.40625 8.203125 
Q 42.578125 3.328125 38.25 0.953125 
Q 33.9375 -1.421875 27.875 -1.421875 
Q 17.96875 -1.421875 11.734375 6.484375 
Q 5.515625 14.40625 5.515625 27.296875 
Q 5.515625 40.1875 11.734375 48.09375 
Q 17.96875 56 27.875 56 
Q 33.9375 56 38.25 53.625 
Q 42.578125 51.265625 45.40625 46.390625 
z
M 14.796875 27.296875 
Q 14.796875 17.390625 18.875 11.75 
Q 22.953125 6.109375 30.078125 6.109375 
Q 37.203125 6.109375 41.296875 11.75 
Q 45.40625 17.390625 45.40625 27.296875 
Q 45.40625 37.203125 41.296875 42.84375 
Q 37.203125 48.484375 30.078125 48.484375 
Q 22.953125 48.484375 18.875 42.84375 
Q 14.796875 37.203125 14.796875 27.296875 
z
" id="DejaVuSans-64"/>
      <path d="M 39.40625 66.21875 
Q 28.65625 66.21875 22.328125 58.203125 
Q 16.015625 50.203125 16.015625 36.375 
Q 16.015625 22.609375 22.328125 14.59375 
Q 28.65625 6.59375 39.40625 6.59375 
Q 50.140625 6.59375 56.421875 14.59375 
Q 62.703125 22.609375 62.703125 36.375 
Q 62.703125 50.203125 56.421875 58.203125 
Q 50.140625 66.21875 39.40625 66.21875 
z
M 39.40625 74.21875 
Q 54.734375 74.21875 63.90625 63.9375 
Q 73.09375 53.65625 73.09375 36.375 
Q 73.09375 19.140625 63.90625 8.859375 
Q 54.734375 -1.421875 39.40625 -1.421875 
Q 24.03125 -1.421875 14.8125 8.828125 
Q 5.609375 19.09375 5.609375 36.375 
Q 5.609375 53.65625 14.8125 63.9375 
Q 24.03125 74.21875 39.40625 74.21875 
z
" id="DejaVuSans-4f"/>
      <path d="M 64.40625 67.28125 
L 64.40625 56.890625 
Q 59.421875 61.53125 53.78125 63.8125 
Q 48.140625 66.109375 41.796875 66.109375 
Q 29.296875 66.109375 22.65625 58.46875 
Q 16.015625 50.828125 16.015625 36.375 
Q 16.015625 21.96875 22.65625 14.328125 
Q 29.296875 6.6875 41.796875 6.6875 
Q 48.140625 6.6875 53.78125 8.984375 
Q 59.421875 11.28125 64.40625 15.921875 
L 64.40625 5.609375 
Q 59.234375 2.09375 53.4375 0.328125 
Q 47.65625 -1.421875 41.21875 -1.421875 
Q 24.65625 -1.421875 15.125 8.703125 
Q 5.609375 18.84375 5.609375 36.375 
Q 5.609375 53.953125 15.125 64.078125 
Q 24.65625 74.21875 41.21875 74.21875 
Q 47.75 74.21875 53.53125 72.484375 
Q 59.328125 70.75 64.40625 67.28125 
z
" id="DejaVuSans-43"/>
     </defs>
     <g style="fill:#262626;" transform="translate(430.117117 61.458281)scale(0.11 -0.11)">
      <use xlink:href="#DejaVuSans-52"/>
      <use x="69.419922" xlink:href="#DejaVuSans-65"/>
      <use x="130.943359" xlink:href="#DejaVuSans-73"/>
      <use x="183.042969" xlink:href="#DejaVuSans-61"/>
      <use x="244.322266" xlink:href="#DejaVuSans-6d"/>
      <use x="341.734375" xlink:href="#DejaVuSans-70"/>
      <use x="405.210938" xlink:href="#DejaVuSans-6c"/>
      <use x="432.994141" xlink:href="#DejaVuSans-65"/>
      <use x="494.517578" xlink:href="#DejaVuSans-64"/>
      <use x="557.994141" xlink:href="#DejaVuSans-20"/>
      <use x="589.78125" xlink:href="#DejaVuSans-52"/>
      <use x="659.263672" xlink:href="#DejaVuSans-4f"/>
      <use x="737.974609" xlink:href="#DejaVuSans-43"/>
      <use x="807.798828" xlink:href="#DejaVuSans-20"/>
      <use x="839.585938" xlink:href="#DejaVuSans-43"/>
      <use x="909.410156" xlink:href="#DejaVuSans-75"/>
      <use x="972.789062" xlink:href="#DejaVuSans-72"/>
      <use x="1013.902344" xlink:href="#DejaVuSans-76"/>
      <use x="1073.082031" xlink:href="#DejaVuSans-65"/>
     </g>
    </g>
    <g id="PathCollection_4">
     <g>
      <use style="stroke:#000000;stroke-width:1.5;" x="410.317117" xlink:href="#md9a8b35ce8" y="74.716719"/>
     </g>
    </g>
    <g id="text_16">
     <!-- Original ROC Curve -->
     <defs>
      <path d="M 45.40625 27.984375 
Q 45.40625 37.75 41.375 43.109375 
Q 37.359375 48.484375 30.078125 48.484375 
Q 22.859375 48.484375 18.828125 43.109375 
Q 14.796875 37.75 14.796875 27.984375 
Q 14.796875 18.265625 18.828125 12.890625 
Q 22.859375 7.515625 30.078125 7.515625 
Q 37.359375 7.515625 41.375 12.890625 
Q 45.40625 18.265625 45.40625 27.984375 
z
M 54.390625 6.78125 
Q 54.390625 -7.171875 48.1875 -13.984375 
Q 42 -20.796875 29.203125 -20.796875 
Q 24.46875 -20.796875 20.265625 -20.09375 
Q 16.0625 -19.390625 12.109375 -17.921875 
L 12.109375 -9.1875 
Q 16.0625 -11.328125 19.921875 -12.34375 
Q 23.78125 -13.375 27.78125 -13.375 
Q 36.625 -13.375 41.015625 -8.765625 
Q 45.40625 -4.15625 45.40625 5.171875 
L 45.40625 9.625 
Q 42.625 4.78125 38.28125 2.390625 
Q 33.9375 0 27.875 0 
Q 17.828125 0 11.671875 7.65625 
Q 5.515625 15.328125 5.515625 27.984375 
Q 5.515625 40.671875 11.671875 48.328125 
Q 17.828125 56 27.875 56 
Q 33.9375 56 38.28125 53.609375 
Q 42.625 51.21875 45.40625 46.390625 
L 45.40625 54.6875 
L 54.390625 54.6875 
z
" id="DejaVuSans-67"/>
      <path d="M 54.890625 33.015625 
L 54.890625 0 
L 45.90625 0 
L 45.90625 32.71875 
Q 45.90625 40.484375 42.875 44.328125 
Q 39.84375 48.1875 33.796875 48.1875 
Q 26.515625 48.1875 22.3125 43.546875 
Q 18.109375 38.921875 18.109375 30.90625 
L 18.109375 0 
L 9.078125 0 
L 9.078125 54.6875 
L 18.109375 54.6875 
L 18.109375 46.1875 
Q 21.34375 51.125 25.703125 53.5625 
Q 30.078125 56 35.796875 56 
Q 45.21875 56 50.046875 50.171875 
Q 54.890625 44.34375 54.890625 33.015625 
z
" id="DejaVuSans-6e"/>
     </defs>
     <g style="fill:#262626;" transform="translate(430.117117 77.604219)scale(0.11 -0.11)">
      <use xlink:href="#DejaVuSans-4f"/>
      <use x="78.710938" xlink:href="#DejaVuSans-72"/>
      <use x="119.824219" xlink:href="#DejaVuSans-69"/>
      <use x="147.607422" xlink:href="#DejaVuSans-67"/>
      <use x="211.083984" xlink:href="#DejaVuSans-69"/>
      <use x="238.867188" xlink:href="#DejaVuSans-6e"/>
      <use x="302.246094" xlink:href="#DejaVuSans-61"/>
      <use x="363.525391" xlink:href="#DejaVuSans-6c"/>
      <use x="391.308594" xlink:href="#DejaVuSans-20"/>
      <use x="423.095703" xlink:href="#DejaVuSans-52"/>
      <use x="492.578125" xlink:href="#DejaVuSans-4f"/>
      <use x="571.289062" xlink:href="#DejaVuSans-43"/>
      <use x="641.113281" xlink:href="#DejaVuSans-20"/>
      <use x="672.900391" xlink:href="#DejaVuSans-43"/>
      <use x="742.724609" xlink:href="#DejaVuSans-75"/>
      <use x="806.103516" xlink:href="#DejaVuSans-72"/>
      <use x="847.216797" xlink:href="#DejaVuSans-76"/>
      <use x="906.396484" xlink:href="#DejaVuSans-65"/>
     </g>
    </g>
   </g>
  </g>
  <g id="axes_2">
   <g id="patch_8">
    <path d="M 911.172414 315 
L 1296 315 
L 1296 43.2 
L 911.172414 43.2 
z
" style="fill:#eaeaf2;"/>
   </g>
   <g id="matplotlib.axis_3">
    <g id="xtick_7">
     <g id="line2d_13">
      <path clip-path="url(#p3c0590198a)" d="M 911.172414 315 
L 911.172414 43.2 
" style="fill:none;stroke:#ffffff;stroke-linecap:round;"/>
     </g>
     <g id="text_17">
      <!-- 0.0 -->
      <g style="fill:#262626;" transform="translate(902.425695 332.858281)scale(0.11 -0.11)">
       <use xlink:href="#DejaVuSans-30"/>
       <use x="63.623047" xlink:href="#DejaVuSans-2e"/>
       <use x="95.410156" xlink:href="#DejaVuSans-30"/>
      </g>
     </g>
    </g>
    <g id="xtick_8">
     <g id="line2d_14">
      <path clip-path="url(#p3c0590198a)" d="M 988.137931 315 
L 988.137931 43.2 
" style="fill:none;stroke:#ffffff;stroke-linecap:round;"/>
     </g>
     <g id="text_18">
      <!-- 0.2 -->
      <g style="fill:#262626;" transform="translate(979.391212 332.858281)scale(0.11 -0.11)">
       <use xlink:href="#DejaVuSans-30"/>
       <use x="63.623047" xlink:href="#DejaVuSans-2e"/>
       <use x="95.410156" xlink:href="#DejaVuSans-32"/>
      </g>
     </g>
    </g>
    <g id="xtick_9">
     <g id="line2d_15">
      <path clip-path="url(#p3c0590198a)" d="M 1065.103448 315 
L 1065.103448 43.2 
" style="fill:none;stroke:#ffffff;stroke-linecap:round;"/>
     </g>
     <g id="text_19">
      <!-- 0.4 -->
      <g style="fill:#262626;" transform="translate(1056.35673 332.858281)scale(0.11 -0.11)">
       <use xlink:href="#DejaVuSans-30"/>
       <use x="63.623047" xlink:href="#DejaVuSans-2e"/>
       <use x="95.410156" xlink:href="#DejaVuSans-34"/>
      </g>
     </g>
    </g>
    <g id="xtick_10">
     <g id="line2d_16">
      <path clip-path="url(#p3c0590198a)" d="M 1142.068966 315 
L 1142.068966 43.2 
" style="fill:none;stroke:#ffffff;stroke-linecap:round;"/>
     </g>
     <g id="text_20">
      <!-- 0.6 -->
      <g style="fill:#262626;" transform="translate(1133.322247 332.858281)scale(0.11 -0.11)">
       <use xlink:href="#DejaVuSans-30"/>
       <use x="63.623047" xlink:href="#DejaVuSans-2e"/>
       <use x="95.410156" xlink:href="#DejaVuSans-36"/>
      </g>
     </g>
    </g>
    <g id="xtick_11">
     <g id="line2d_17">
      <path clip-path="url(#p3c0590198a)" d="M 1219.034483 315 
L 1219.034483 43.2 
" style="fill:none;stroke:#ffffff;stroke-linecap:round;"/>
     </g>
     <g id="text_21">
      <!-- 0.8 -->
      <g style="fill:#262626;" transform="translate(1210.287764 332.858281)scale(0.11 -0.11)">
       <use xlink:href="#DejaVuSans-30"/>
       <use x="63.623047" xlink:href="#DejaVuSans-2e"/>
       <use x="95.410156" xlink:href="#DejaVuSans-38"/>
      </g>
     </g>
    </g>
    <g id="xtick_12">
     <g id="line2d_18">
      <path clip-path="url(#p3c0590198a)" d="M 1296 315 
L 1296 43.2 
" style="fill:none;stroke:#ffffff;stroke-linecap:round;"/>
     </g>
     <g id="text_22">
      <!-- 1.0 -->
      <g style="fill:#262626;" transform="translate(1287.253281 332.858281)scale(0.11 -0.11)">
       <use xlink:href="#DejaVuSans-31"/>
       <use x="63.623047" xlink:href="#DejaVuSans-2e"/>
       <use x="95.410156" xlink:href="#DejaVuSans-30"/>
      </g>
     </g>
    </g>
    <g id="text_23">
     <!-- Recall -->
     <defs>
      <path d="M 48.78125 52.59375 
L 48.78125 44.1875 
Q 44.96875 46.296875 41.140625 47.34375 
Q 37.3125 48.390625 33.40625 48.390625 
Q 24.65625 48.390625 19.8125 42.84375 
Q 14.984375 37.3125 14.984375 27.296875 
Q 14.984375 17.28125 19.8125 11.734375 
Q 24.65625 6.203125 33.40625 6.203125 
Q 37.3125 6.203125 41.140625 7.25 
Q 44.96875 8.296875 48.78125 10.40625 
L 48.78125 2.09375 
Q 45.015625 0.34375 40.984375 -0.53125 
Q 36.96875 -1.421875 32.421875 -1.421875 
Q 20.0625 -1.421875 12.78125 6.34375 
Q 5.515625 14.109375 5.515625 27.296875 
Q 5.515625 40.671875 12.859375 48.328125 
Q 20.21875 56 33.015625 56 
Q 37.15625 56 41.109375 55.140625 
Q 45.0625 54.296875 48.78125 52.59375 
z
" id="DejaVuSans-63"/>
     </defs>
     <g style="fill:#262626;" transform="translate(1085.419332 348.264063)scale(0.12 -0.12)">
      <use xlink:href="#DejaVuSans-52"/>
      <use x="69.419922" xlink:href="#DejaVuSans-65"/>
      <use x="130.943359" xlink:href="#DejaVuSans-63"/>
      <use x="185.923828" xlink:href="#DejaVuSans-61"/>
      <use x="247.203125" xlink:href="#DejaVuSans-6c"/>
      <use x="274.986328" xlink:href="#DejaVuSans-6c"/>
     </g>
    </g>
   </g>
   <g id="matplotlib.axis_4">
    <g id="ytick_7">
     <g id="line2d_19">
      <path clip-path="url(#p3c0590198a)" d="M 911.172414 315 
L 1296 315 
" style="fill:none;stroke:#ffffff;stroke-linecap:round;"/>
     </g>
     <g id="text_24">
      <!-- 0.0 -->
      <g style="fill:#262626;" transform="translate(884.178976 319.179141)scale(0.11 -0.11)">
       <use xlink:href="#DejaVuSans-30"/>
       <use x="63.623047" xlink:href="#DejaVuSans-2e"/>
       <use x="95.410156" xlink:href="#DejaVuSans-30"/>
      </g>
     </g>
    </g>
    <g id="ytick_8">
     <g id="line2d_20">
      <path clip-path="url(#p3c0590198a)" d="M 911.172414 260.64 
L 1296 260.64 
" style="fill:none;stroke:#ffffff;stroke-linecap:round;"/>
     </g>
     <g id="text_25">
      <!-- 0.2 -->
      <g style="fill:#262626;" transform="translate(884.178976 264.819141)scale(0.11 -0.11)">
       <use xlink:href="#DejaVuSans-30"/>
       <use x="63.623047" xlink:href="#DejaVuSans-2e"/>
       <use x="95.410156" xlink:href="#DejaVuSans-32"/>
      </g>
     </g>
    </g>
    <g id="ytick_9">
     <g id="line2d_21">
      <path clip-path="url(#p3c0590198a)" d="M 911.172414 206.28 
L 1296 206.28 
" style="fill:none;stroke:#ffffff;stroke-linecap:round;"/>
     </g>
     <g id="text_26">
      <!-- 0.4 -->
      <g style="fill:#262626;" transform="translate(884.178976 210.459141)scale(0.11 -0.11)">
       <use xlink:href="#DejaVuSans-30"/>
       <use x="63.623047" xlink:href="#DejaVuSans-2e"/>
       <use x="95.410156" xlink:href="#DejaVuSans-34"/>
      </g>
     </g>
    </g>
    <g id="ytick_10">
     <g id="line2d_22">
      <path clip-path="url(#p3c0590198a)" d="M 911.172414 151.92 
L 1296 151.92 
" style="fill:none;stroke:#ffffff;stroke-linecap:round;"/>
     </g>
     <g id="text_27">
      <!-- 0.6 -->
      <g style="fill:#262626;" transform="translate(884.178976 156.099141)scale(0.11 -0.11)">
       <use xlink:href="#DejaVuSans-30"/>
       <use x="63.623047" xlink:href="#DejaVuSans-2e"/>
       <use x="95.410156" xlink:href="#DejaVuSans-36"/>
      </g>
     </g>
    </g>
    <g id="ytick_11">
     <g id="line2d_23">
      <path clip-path="url(#p3c0590198a)" d="M 911.172414 97.56 
L 1296 97.56 
" style="fill:none;stroke:#ffffff;stroke-linecap:round;"/>
     </g>
     <g id="text_28">
      <!-- 0.8 -->
      <g style="fill:#262626;" transform="translate(884.178976 101.739141)scale(0.11 -0.11)">
       <use xlink:href="#DejaVuSans-30"/>
       <use x="63.623047" xlink:href="#DejaVuSans-2e"/>
       <use x="95.410156" xlink:href="#DejaVuSans-38"/>
      </g>
     </g>
    </g>
    <g id="ytick_12">
     <g id="line2d_24">
      <path clip-path="url(#p3c0590198a)" d="M 911.172414 43.2 
L 1296 43.2 
" style="fill:none;stroke:#ffffff;stroke-linecap:round;"/>
     </g>
     <g id="text_29">
      <!-- 1.0 -->
      <g style="fill:#262626;" transform="translate(884.178976 47.379141)scale(0.11 -0.11)">
       <use xlink:href="#DejaVuSans-31"/>
       <use x="63.623047" xlink:href="#DejaVuSans-2e"/>
       <use x="95.410156" xlink:href="#DejaVuSans-30"/>
      </g>
     </g>
    </g>
    <g id="text_30">
     <!-- Precision -->
     <g style="fill:#262626;" transform="translate(877.683351 206.105625)rotate(-90)scale(0.12 -0.12)">
      <use xlink:href="#DejaVuSans-50"/>
      <use x="60.287109" xlink:href="#DejaVuSans-72"/>
      <use x="101.369141" xlink:href="#DejaVuSans-65"/>
      <use x="162.892578" xlink:href="#DejaVuSans-63"/>
      <use x="217.873047" xlink:href="#DejaVuSans-69"/>
      <use x="245.65625" xlink:href="#DejaVuSans-73"/>
      <use x="297.755859" xlink:href="#DejaVuSans-69"/>
      <use x="325.539062" xlink:href="#DejaVuSans-6f"/>
      <use x="386.720703" xlink:href="#DejaVuSans-6e"/>
     </g>
    </g>
   </g>
   <g id="PathCollection_5">
    <g clip-path="url(#p3c0590198a)">
     <use style="fill:#4c72b0;stroke:#4c72b0;" x="930.413793" xlink:href="#mcd0f441191" y="97.56"/>
     <use style="fill:#4c72b0;stroke:#4c72b0;" x="941.811108" xlink:href="#mcd0f441191" y="140.768383"/>
     <use style="fill:#4c72b0;stroke:#4c72b0;" x="952.804645" xlink:href="#mcd0f441191" y="155.931178"/>
     <use style="fill:#4c72b0;stroke:#4c72b0;" x="962.906811" xlink:href="#mcd0f441191" y="164.748823"/>
     <use style="fill:#4c72b0;stroke:#4c72b0;" x="973.008977" xlink:href="#mcd0f441191" y="170.154582"/>
     <use style="fill:#4c72b0;stroke:#4c72b0;" x="983.111143" xlink:href="#mcd0f441191" y="173.807722"/>
     <use style="fill:#4c72b0;stroke:#4c72b0;" x="993.213309" xlink:href="#mcd0f441191" y="176.441682"/>
     <use style="fill:#4c72b0;stroke:#4c72b0;" x="1003.315474" xlink:href="#mcd0f441191" y="178.430757"/>
     <use style="fill:#4c72b0;stroke:#4c72b0;" x="1008.99935" xlink:href="#mcd0f441191" y="182.986538"/>
     <use style="fill:#4c72b0;stroke:#4c72b0;" x="1011.709687" xlink:href="#mcd0f441191" y="188.766116"/>
     <use style="fill:#4c72b0;stroke:#4c72b0;" x="1014.420024" xlink:href="#mcd0f441191" y="193.793947"/>
     <use style="fill:#4c72b0;stroke:#4c72b0;" x="1017.130362" xlink:href="#mcd0f441191" y="198.207744"/>
     <use style="fill:#4c72b0;stroke:#4c72b0;" x="1019.840699" xlink:href="#mcd0f441191" y="202.113519"/>
     <use style="fill:#4c72b0;stroke:#4c72b0;" x="1022.551036" xlink:href="#mcd0f441191" y="205.594207"/>
     <use style="fill:#4c72b0;stroke:#4c72b0;" x="1025.261373" xlink:href="#mcd0f441191" y="208.715625"/>
     <use style="fill:#4c72b0;stroke:#4c72b0;" x="1027.97171" xlink:href="#mcd0f441191" y="211.530666"/>
     <use style="fill:#4c72b0;stroke:#4c72b0;" x="1030.682048" xlink:href="#mcd0f441191" y="214.082329"/>
     <use style="fill:#4c72b0;stroke:#4c72b0;" x="1033.392385" xlink:href="#mcd0f441191" y="216.405924"/>
     <use style="fill:#4c72b0;stroke:#4c72b0;" x="1036.102722" xlink:href="#mcd0f441191" y="218.530721"/>
     <use style="fill:#4c72b0;stroke:#4c72b0;" x="1038.813059" xlink:href="#mcd0f441191" y="220.481185"/>
     <use style="fill:#4c72b0;stroke:#4c72b0;" x="1041.523396" xlink:href="#mcd0f441191" y="222.277927"/>
     <use style="fill:#4c72b0;stroke:#4c72b0;" x="1044.233733" xlink:href="#mcd0f441191" y="223.93843"/>
     <use style="fill:#4c72b0;stroke:#4c72b0;" x="1046.944071" xlink:href="#mcd0f441191" y="225.477624"/>
     <use style="fill:#4c72b0;stroke:#4c72b0;" x="1049.654408" xlink:href="#mcd0f441191" y="226.908334"/>
     <use style="fill:#4c72b0;stroke:#4c72b0;" x="1052.364745" xlink:href="#mcd0f441191" y="228.241638"/>
     <use style="fill:#4c72b0;stroke:#4c72b0;" x="1055.075082" xlink:href="#mcd0f441191" y="229.487157"/>
     <use style="fill:#4c72b0;stroke:#4c72b0;" x="1057.785419" xlink:href="#mcd0f441191" y="230.653284"/>
     <use style="fill:#4c72b0;stroke:#4c72b0;" x="1060.495757" xlink:href="#mcd0f441191" y="231.747375"/>
     <use style="fill:#4c72b0;stroke:#4c72b0;" x="1063.206094" xlink:href="#mcd0f441191" y="232.775905"/>
     <use style="fill:#4c72b0;stroke:#4c72b0;" x="1065.757023" xlink:href="#mcd0f441191" y="233.803295"/>
     <use style="fill:#4c72b0;stroke:#4c72b0;" x="1067.935921" xlink:href="#mcd0f441191" y="234.907153"/>
     <use style="fill:#4c72b0;stroke:#4c72b0;" x="1070.11482" xlink:href="#mcd0f441191" y="235.952332"/>
     <use style="fill:#4c72b0;stroke:#4c72b0;" x="1072.293718" xlink:href="#mcd0f441191" y="236.943389"/>
     <use style="fill:#4c72b0;stroke:#4c72b0;" x="1074.472617" xlink:href="#mcd0f441191" y="237.884421"/>
     <use style="fill:#4c72b0;stroke:#4c72b0;" x="1076.651515" xlink:href="#mcd0f441191" y="238.779124"/>
     <use style="fill:#4c72b0;stroke:#4c72b0;" x="1078.830414" xlink:href="#mcd0f441191" y="239.630835"/>
     <use style="fill:#4c72b0;stroke:#4c72b0;" x="1081.009312" xlink:href="#mcd0f441191" y="240.442582"/>
     <use style="fill:#4c72b0;stroke:#4c72b0;" x="1083.188211" xlink:href="#mcd0f441191" y="241.217113"/>
     <use style="fill:#4c72b0;stroke:#4c72b0;" x="1085.367109" xlink:href="#mcd0f441191" y="241.956929"/>
     <use style="fill:#4c72b0;stroke:#4c72b0;" x="1087.546008" xlink:href="#mcd0f441191" y="242.664314"/>
     <use style="fill:#4c72b0;stroke:#4c72b0;" x="1089.724906" xlink:href="#mcd0f441191" y="243.341354"/>
     <use style="fill:#4c72b0;stroke:#4c72b0;" x="1091.903805" xlink:href="#mcd0f441191" y="243.98996"/>
     <use style="fill:#4c72b0;stroke:#4c72b0;" x="1094.082703" xlink:href="#mcd0f441191" y="244.611888"/>
     <use style="fill:#4c72b0;stroke:#4c72b0;" x="1096.261602" xlink:href="#mcd0f441191" y="245.208749"/>
     <use style="fill:#4c72b0;stroke:#4c72b0;" x="1098.4405" xlink:href="#mcd0f441191" y="245.78203"/>
     <use style="fill:#4c72b0;stroke:#4c72b0;" x="1100.619399" xlink:href="#mcd0f441191" y="246.333101"/>
     <use style="fill:#4c72b0;stroke:#4c72b0;" x="1102.798297" xlink:href="#mcd0f441191" y="246.863228"/>
     <use style="fill:#4c72b0;stroke:#4c72b0;" x="1104.462015" xlink:href="#mcd0f441191" y="247.508711"/>
     <use style="fill:#4c72b0;stroke:#4c72b0;" x="1105.833914" xlink:href="#mcd0f441191" y="248.206865"/>
     <use style="fill:#4c72b0;stroke:#4c72b0;" x="1107.205813" xlink:href="#mcd0f441191" y="248.881248"/>
     <use style="fill:#4c72b0;stroke:#4c72b0;" x="1108.577712" xlink:href="#mcd0f441191" y="249.533053"/>
     <use style="fill:#4c72b0;stroke:#4c72b0;" x="1109.949611" xlink:href="#mcd0f441191" y="250.163397"/>
     <use style="fill:#4c72b0;stroke:#4c72b0;" x="1111.32151" xlink:href="#mcd0f441191" y="250.773321"/>
     <use style="fill:#4c72b0;stroke:#4c72b0;" x="1112.693409" xlink:href="#mcd0f441191" y="251.363802"/>
     <use style="fill:#4c72b0;stroke:#4c72b0;" x="1114.065308" xlink:href="#mcd0f441191" y="251.935755"/>
     <use style="fill:#4c72b0;stroke:#4c72b0;" x="1115.437207" xlink:href="#mcd0f441191" y="252.490039"/>
     <use style="fill:#4c72b0;stroke:#4c72b0;" x="1116.809106" xlink:href="#mcd0f441191" y="253.02746"/>
     <use style="fill:#4c72b0;stroke:#4c72b0;" x="1118.181005" xlink:href="#mcd0f441191" y="253.548776"/>
     <use style="fill:#4c72b0;stroke:#4c72b0;" x="1119.552905" xlink:href="#mcd0f441191" y="254.0547"/>
     <use style="fill:#4c72b0;stroke:#4c72b0;" x="1120.924804" xlink:href="#mcd0f441191" y="254.545904"/>
     <use style="fill:#4c72b0;stroke:#4c72b0;" x="1122.296703" xlink:href="#mcd0f441191" y="255.023022"/>
     <use style="fill:#4c72b0;stroke:#4c72b0;" x="1123.668602" xlink:href="#mcd0f441191" y="255.48665"/>
     <use style="fill:#4c72b0;stroke:#4c72b0;" x="1125.040501" xlink:href="#mcd0f441191" y="255.937353"/>
     <use style="fill:#4c72b0;stroke:#4c72b0;" x="1126.4124" xlink:href="#mcd0f441191" y="256.375663"/>
     <use style="fill:#4c72b0;stroke:#4c72b0;" x="1127.784299" xlink:href="#mcd0f441191" y="256.802086"/>
     <use style="fill:#4c72b0;stroke:#4c72b0;" x="1129.156198" xlink:href="#mcd0f441191" y="257.217098"/>
     <use style="fill:#4c72b0;stroke:#4c72b0;" x="1130.528097" xlink:href="#mcd0f441191" y="257.621151"/>
     <use style="fill:#4c72b0;stroke:#4c72b0;" x="1131.899996" xlink:href="#mcd0f441191" y="258.014673"/>
     <use style="fill:#4c72b0;stroke:#4c72b0;" x="1133.271895" xlink:href="#mcd0f441191" y="258.398072"/>
     <use style="fill:#4c72b0;stroke:#4c72b0;" x="1134.643794" xlink:href="#mcd0f441191" y="258.771732"/>
     <use style="fill:#4c72b0;stroke:#4c72b0;" x="1136.015693" xlink:href="#mcd0f441191" y="259.13602"/>
     <use style="fill:#4c72b0;stroke:#4c72b0;" x="1137.387592" xlink:href="#mcd0f441191" y="259.491284"/>
     <use style="fill:#4c72b0;stroke:#4c72b0;" x="1138.759491" xlink:href="#mcd0f441191" y="259.837856"/>
     <use style="fill:#4c72b0;stroke:#4c72b0;" x="1140.131391" xlink:href="#mcd0f441191" y="260.17605"/>
     <use style="fill:#4c72b0;stroke:#4c72b0;" x="1141.50329" xlink:href="#mcd0f441191" y="260.506167"/>
     <use style="fill:#4c72b0;stroke:#4c72b0;" x="1142.988741" xlink:href="#mcd0f441191" y="260.807238"/>
     <use style="fill:#4c72b0;stroke:#4c72b0;" x="1144.553866" xlink:href="#mcd0f441191" y="261.086474"/>
     <use style="fill:#4c72b0;stroke:#4c72b0;" x="1146.11899" xlink:href="#mcd0f441191" y="261.359183"/>
     <use style="fill:#4c72b0;stroke:#4c72b0;" x="1147.684114" xlink:href="#mcd0f441191" y="261.625592"/>
     <use style="fill:#4c72b0;stroke:#4c72b0;" x="1149.249238" xlink:href="#mcd0f441191" y="261.885917"/>
     <use style="fill:#4c72b0;stroke:#4c72b0;" x="1150.814363" xlink:href="#mcd0f441191" y="262.140363"/>
     <use style="fill:#4c72b0;stroke:#4c72b0;" x="1152.379487" xlink:href="#mcd0f441191" y="262.389128"/>
     <use style="fill:#4c72b0;stroke:#4c72b0;" x="1153.944611" xlink:href="#mcd0f441191" y="262.6324"/>
     <use style="fill:#4c72b0;stroke:#4c72b0;" x="1155.509736" xlink:href="#mcd0f441191" y="262.870358"/>
     <use style="fill:#4c72b0;stroke:#4c72b0;" x="1157.07486" xlink:href="#mcd0f441191" y="263.103175"/>
     <use style="fill:#4c72b0;stroke:#4c72b0;" x="1158.639984" xlink:href="#mcd0f441191" y="263.331016"/>
     <use style="fill:#4c72b0;stroke:#4c72b0;" x="1160.205108" xlink:href="#mcd0f441191" y="263.554039"/>
     <use style="fill:#4c72b0;stroke:#4c72b0;" x="1161.770233" xlink:href="#mcd0f441191" y="263.772395"/>
     <use style="fill:#4c72b0;stroke:#4c72b0;" x="1163.335357" xlink:href="#mcd0f441191" y="263.986228"/>
     <use style="fill:#4c72b0;stroke:#4c72b0;" x="1164.900481" xlink:href="#mcd0f441191" y="264.195678"/>
     <use style="fill:#4c72b0;stroke:#4c72b0;" x="1166.465606" xlink:href="#mcd0f441191" y="264.400878"/>
     <use style="fill:#4c72b0;stroke:#4c72b0;" x="1168.03073" xlink:href="#mcd0f441191" y="264.601957"/>
     <use style="fill:#4c72b0;stroke:#4c72b0;" x="1169.595854" xlink:href="#mcd0f441191" y="264.799037"/>
     <use style="fill:#4c72b0;stroke:#4c72b0;" x="1171.160978" xlink:href="#mcd0f441191" y="264.992237"/>
     <use style="fill:#4c72b0;stroke:#4c72b0;" x="1172.726103" xlink:href="#mcd0f441191" y="265.181669"/>
     <use style="fill:#4c72b0;stroke:#4c72b0;" x="1174.291227" xlink:href="#mcd0f441191" y="265.367443"/>
     <use style="fill:#4c72b0;stroke:#4c72b0;" x="1175.856351" xlink:href="#mcd0f441191" y="265.549664"/>
     <use style="fill:#4c72b0;stroke:#4c72b0;" x="1177.421476" xlink:href="#mcd0f441191" y="265.728433"/>
     <use style="fill:#4c72b0;stroke:#4c72b0;" x="1178.9866" xlink:href="#mcd0f441191" y="265.903847"/>
     <use style="fill:#4c72b0;stroke:#4c72b0;" x="1180.551724" xlink:href="#mcd0f441191" y="266.076"/>
    </g>
   </g>
   <g id="PathCollection_6">
    <g clip-path="url(#p3c0590198a)">
     <use style="stroke:#000000;stroke-width:1.5;" x="930.413793" xlink:href="#md9a8b35ce8" y="97.56"/>
     <use style="stroke:#000000;stroke-width:1.5;" x="949.655172" xlink:href="#md9a8b35ce8" y="151.92"/>
     <use style="stroke:#000000;stroke-width:1.5;" x="1007.37931" xlink:href="#md9a8b35ce8" y="179.1"/>
     <use style="stroke:#000000;stroke-width:1.5;" x="1065.103448" xlink:href="#md9a8b35ce8" y="233.46"/>
     <use style="stroke:#000000;stroke-width:1.5;" x="1103.586207" xlink:href="#md9a8b35ce8" y="247.05"/>
     <use style="stroke:#000000;stroke-width:1.5;" x="1142.068966" xlink:href="#md9a8b35ce8" y="260.64"/>
     <use style="stroke:#000000;stroke-width:1.5;" x="1180.551724" xlink:href="#md9a8b35ce8" y="266.076"/>
    </g>
   </g>
   <g id="patch_9">
    <path d="M 652.472136 180 
Q 720 180 787.527864 180 
" style="fill:none;stroke:#000000;stroke-linecap:round;stroke-width:4;"/>
    <path d="M 672.472136 190 
L 652.472136 180 
L 672.472136 170 
L 672.472136 190 
z
" style="stroke:#000000;stroke-linecap:round;stroke-width:4;"/>
    <path d="M 767.527864 170 
L 787.527864 180 
L 767.527864 190 
L 767.527864 170 
z
" style="stroke:#000000;stroke-linecap:round;stroke-width:4;"/>
   </g>
   <g id="patch_10">
    <path d="M 911.172414 315 
L 911.172414 43.2 
" style="fill:none;stroke:#ffffff;stroke-linecap:square;stroke-linejoin:miter;stroke-width:1.25;"/>
   </g>
   <g id="patch_11">
    <path d="M 1296 315 
L 1296 43.2 
" style="fill:none;stroke:#ffffff;stroke-linecap:square;stroke-linejoin:miter;stroke-width:1.25;"/>
   </g>
   <g id="patch_12">
    <path d="M 911.172414 315 
L 1296 315 
" style="fill:none;stroke:#ffffff;stroke-linecap:square;stroke-linejoin:miter;stroke-width:1.25;"/>
   </g>
   <g id="patch_13">
    <path d="M 911.172414 43.2 
L 1296 43.2 
" style="fill:none;stroke:#ffffff;stroke-linecap:square;stroke-linejoin:miter;stroke-width:1.25;"/>
   </g>
   <g id="legend_2">
    <g id="patch_14">
     <path d="M 1137.997031 84.291875 
L 1288.3 84.291875 
Q 1290.5 84.291875 1290.5 82.091875 
L 1290.5 50.9 
Q 1290.5 48.7 1288.3 48.7 
L 1137.997031 48.7 
Q 1135.797031 48.7 1135.797031 50.9 
L 1135.797031 82.091875 
Q 1135.797031 84.291875 1137.997031 84.291875 
z
" style="fill:#eaeaf2;opacity:0.8;stroke:#cccccc;stroke-linejoin:miter;"/>
    </g>
    <g id="PathCollection_7">
     <g>
      <use style="fill:#4c72b0;stroke:#4c72b0;" x="1151.197031" xlink:href="#mcd0f441191" y="58.570781"/>
     </g>
    </g>
    <g id="text_31">
     <!-- Resampled PR Curve -->
     <g style="fill:#262626;" transform="translate(1170.997031 61.458281)scale(0.11 -0.11)">
      <use xlink:href="#DejaVuSans-52"/>
      <use x="69.419922" xlink:href="#DejaVuSans-65"/>
      <use x="130.943359" xlink:href="#DejaVuSans-73"/>
      <use x="183.042969" xlink:href="#DejaVuSans-61"/>
      <use x="244.322266" xlink:href="#DejaVuSans-6d"/>
      <use x="341.734375" xlink:href="#DejaVuSans-70"/>
      <use x="405.210938" xlink:href="#DejaVuSans-6c"/>
      <use x="432.994141" xlink:href="#DejaVuSans-65"/>
      <use x="494.517578" xlink:href="#DejaVuSans-64"/>
      <use x="557.994141" xlink:href="#DejaVuSans-20"/>
      <use x="589.78125" xlink:href="#DejaVuSans-50"/>
      <use x="650.083984" xlink:href="#DejaVuSans-52"/>
      <use x="719.566406" xlink:href="#DejaVuSans-20"/>
      <use x="751.353516" xlink:href="#DejaVuSans-43"/>
      <use x="821.177734" xlink:href="#DejaVuSans-75"/>
      <use x="884.556641" xlink:href="#DejaVuSans-72"/>
      <use x="925.669922" xlink:href="#DejaVuSans-76"/>
      <use x="984.849609" xlink:href="#DejaVuSans-65"/>
     </g>
    </g>
    <g id="PathCollection_8">
     <g>
      <use style="stroke:#000000;stroke-width:1.5;" x="1151.197031" xlink:href="#md9a8b35ce8" y="74.716719"/>
     </g>
    </g>
    <g id="text_32">
     <!-- Original PR Curve -->
     <g style="fill:#262626;" transform="translate(1170.997031 77.604219)scale(0.11 -0.11)">
      <use xlink:href="#DejaVuSans-4f"/>
      <use x="78.710938" xlink:href="#DejaVuSans-72"/>
      <use x="119.824219" xlink:href="#DejaVuSans-69"/>
      <use x="147.607422" xlink:href="#DejaVuSans-67"/>
      <use x="211.083984" xlink:href="#DejaVuSans-69"/>
      <use x="238.867188" xlink:href="#DejaVuSans-6e"/>
      <use x="302.246094" xlink:href="#DejaVuSans-61"/>
      <use x="363.525391" xlink:href="#DejaVuSans-6c"/>
      <use x="391.308594" xlink:href="#DejaVuSans-20"/>
      <use x="423.095703" xlink:href="#DejaVuSans-50"/>
      <use x="483.398438" xlink:href="#DejaVuSans-52"/>
      <use x="552.880859" xlink:href="#DejaVuSans-20"/>
      <use x="584.667969" xlink:href="#DejaVuSans-43"/>
      <use x="654.492188" xlink:href="#DejaVuSans-75"/>
      <use x="717.871094" xlink:href="#DejaVuSans-72"/>
      <use x="758.984375" xlink:href="#DejaVuSans-76"/>
      <use x="818.164062" xlink:href="#DejaVuSans-65"/>
     </g>
    </g>
   </g>
  </g>
 </g>
 <defs>
  <clipPath id="p8674975347">
   <rect height="271.8" width="384.827586" x="180" y="43.2"/>
  </clipPath>
  <clipPath id="p3c0590198a">
   <rect height="271.8" width="384.827586" x="911.172414" y="43.2"/>
  </clipPath>
 </defs>
</svg>
