<?xml version="1.0" encoding="utf-8" standalone="no"?>
<!DOCTYPE svg PUBLIC "-//W3C//DTD SVG 1.1//EN"
  "http://www.w3.org/Graphics/SVG/1.1/DTD/svg11.dtd">
<!-- Created with matplotlib (http://matplotlib.org/) -->
<svg height="352pt" version="1.1" viewBox="0 0 1431 352" width="1431pt" xmlns="http://www.w3.org/2000/svg" xmlns:xlink="http://www.w3.org/1999/xlink">
 <defs>
  <style type="text/css">
*{stroke-linecap:butt;stroke-linejoin:round;}
  </style>
 </defs>
 <g id="figure_1">
  <g id="patch_1">
   <path d="M 0 352.059687 
L 1431.591406 352.059687 
L 1431.591406 0 
L 0 0 
z
" style="fill:#ffffff;"/>
  </g>
  <g id="axes_1">
   <g id="patch_2">
    <path d="M 49.807188 309.1 
L 520.785636 309.1 
L 520.785636 13.2 
L 49.807188 13.2 
z
" style="fill:#eaeaf2;"/>
   </g>
   <g id="matplotlib.axis_1">
    <g id="xtick_1">
     <g id="line2d_1">
      <path clip-path="url(#p210fd5a8b1)" d="M 49.807188 309.1 
L 49.807188 13.2 
" style="fill:none;stroke:#ffffff;stroke-linecap:round;"/>
     </g>
     <g id="text_1">
      <!-- 0.0 -->
      <defs>
       <path d="M 31.78125 66.40625 
Q 24.171875 66.40625 20.328125 58.90625 
Q 16.5 51.421875 16.5 36.375 
Q 16.5 21.390625 20.328125 13.890625 
Q 24.171875 6.390625 31.78125 6.390625 
Q 39.453125 6.390625 43.28125 13.890625 
Q 47.125 21.390625 47.125 36.375 
Q 47.125 51.421875 43.28125 58.90625 
Q 39.453125 66.40625 31.78125 66.40625 
z
M 31.78125 74.21875 
Q 44.046875 74.21875 50.515625 64.515625 
Q 56.984375 54.828125 56.984375 36.375 
Q 56.984375 17.96875 50.515625 8.265625 
Q 44.046875 -1.421875 31.78125 -1.421875 
Q 19.53125 -1.421875 13.0625 8.265625 
Q 6.59375 17.96875 6.59375 36.375 
Q 6.59375 54.828125 13.0625 64.515625 
Q 19.53125 74.21875 31.78125 74.21875 
z
" id="DejaVuSans-30"/>
       <path d="M 10.6875 12.40625 
L 21 12.40625 
L 21 0 
L 10.6875 0 
z
" id="DejaVuSans-2e"/>
      </defs>
      <g style="fill:#262626;" transform="translate(41.060469 326.958281)scale(0.11 -0.11)">
       <use xlink:href="#DejaVuSans-30"/>
       <use x="63.623047" xlink:href="#DejaVuSans-2e"/>
       <use x="95.410156" xlink:href="#DejaVuSans-30"/>
      </g>
     </g>
    </g>
    <g id="xtick_2">
     <g id="line2d_2">
      <path clip-path="url(#p210fd5a8b1)" d="M 144.002877 309.1 
L 144.002877 13.2 
" style="fill:none;stroke:#ffffff;stroke-linecap:round;"/>
     </g>
     <g id="text_2">
      <!-- 0.2 -->
      <defs>
       <path d="M 19.1875 8.296875 
L 53.609375 8.296875 
L 53.609375 0 
L 7.328125 0 
L 7.328125 8.296875 
Q 12.9375 14.109375 22.625 23.890625 
Q 32.328125 33.6875 34.8125 36.53125 
Q 39.546875 41.84375 41.421875 45.53125 
Q 43.3125 49.21875 43.3125 52.78125 
Q 43.3125 58.59375 39.234375 62.25 
Q 35.15625 65.921875 28.609375 65.921875 
Q 23.96875 65.921875 18.8125 64.3125 
Q 13.671875 62.703125 7.8125 59.421875 
L 7.8125 69.390625 
Q 13.765625 71.78125 18.9375 73 
Q 24.125 74.21875 28.421875 74.21875 
Q 39.75 74.21875 46.484375 68.546875 
Q 53.21875 62.890625 53.21875 53.421875 
Q 53.21875 48.921875 51.53125 44.890625 
Q 49.859375 40.875 45.40625 35.40625 
Q 44.1875 33.984375 37.640625 27.21875 
Q 31.109375 20.453125 19.1875 8.296875 
z
" id="DejaVuSans-32"/>
      </defs>
      <g style="fill:#262626;" transform="translate(135.256158 326.958281)scale(0.11 -0.11)">
       <use xlink:href="#DejaVuSans-30"/>
       <use x="63.623047" xlink:href="#DejaVuSans-2e"/>
       <use x="95.410156" xlink:href="#DejaVuSans-32"/>
      </g>
     </g>
    </g>
    <g id="xtick_3">
     <g id="line2d_3">
      <path clip-path="url(#p210fd5a8b1)" d="M 238.198567 309.1 
L 238.198567 13.2 
" style="fill:none;stroke:#ffffff;stroke-linecap:round;"/>
     </g>
     <g id="text_3">
      <!-- 0.4 -->
      <defs>
       <path d="M 37.796875 64.3125 
L 12.890625 25.390625 
L 37.796875 25.390625 
z
M 35.203125 72.90625 
L 47.609375 72.90625 
L 47.609375 25.390625 
L 58.015625 25.390625 
L 58.015625 17.1875 
L 47.609375 17.1875 
L 47.609375 0 
L 37.796875 0 
L 37.796875 17.1875 
L 4.890625 17.1875 
L 4.890625 26.703125 
z
" id="DejaVuSans-34"/>
      </defs>
      <g style="fill:#262626;" transform="translate(229.451848 326.958281)scale(0.11 -0.11)">
       <use xlink:href="#DejaVuSans-30"/>
       <use x="63.623047" xlink:href="#DejaVuSans-2e"/>
       <use x="95.410156" xlink:href="#DejaVuSans-34"/>
      </g>
     </g>
    </g>
    <g id="xtick_4">
     <g id="line2d_4">
      <path clip-path="url(#p210fd5a8b1)" d="M 332.394256 309.1 
L 332.394256 13.2 
" style="fill:none;stroke:#ffffff;stroke-linecap:round;"/>
     </g>
     <g id="text_4">
      <!-- 0.6 -->
      <defs>
       <path d="M 33.015625 40.375 
Q 26.375 40.375 22.484375 35.828125 
Q 18.609375 31.296875 18.609375 23.390625 
Q 18.609375 15.53125 22.484375 10.953125 
Q 26.375 6.390625 33.015625 6.390625 
Q 39.65625 6.390625 43.53125 10.953125 
Q 47.40625 15.53125 47.40625 23.390625 
Q 47.40625 31.296875 43.53125 35.828125 
Q 39.65625 40.375 33.015625 40.375 
z
M 52.59375 71.296875 
L 52.59375 62.3125 
Q 48.875 64.0625 45.09375 64.984375 
Q 41.3125 65.921875 37.59375 65.921875 
Q 27.828125 65.921875 22.671875 59.328125 
Q 17.53125 52.734375 16.796875 39.40625 
Q 19.671875 43.65625 24.015625 45.921875 
Q 28.375 48.1875 33.59375 48.1875 
Q 44.578125 48.1875 50.953125 41.515625 
Q 57.328125 34.859375 57.328125 23.390625 
Q 57.328125 12.15625 50.6875 5.359375 
Q 44.046875 -1.421875 33.015625 -1.421875 
Q 20.359375 -1.421875 13.671875 8.265625 
Q 6.984375 17.96875 6.984375 36.375 
Q 6.984375 53.65625 15.1875 63.9375 
Q 23.390625 74.21875 37.203125 74.21875 
Q 40.921875 74.21875 44.703125 73.484375 
Q 48.484375 72.75 52.59375 71.296875 
z
" id="DejaVuSans-36"/>
      </defs>
      <g style="fill:#262626;" transform="translate(323.647538 326.958281)scale(0.11 -0.11)">
       <use xlink:href="#DejaVuSans-30"/>
       <use x="63.623047" xlink:href="#DejaVuSans-2e"/>
       <use x="95.410156" xlink:href="#DejaVuSans-36"/>
      </g>
     </g>
    </g>
    <g id="xtick_5">
     <g id="line2d_5">
      <path clip-path="url(#p210fd5a8b1)" d="M 426.589946 309.1 
L 426.589946 13.2 
" style="fill:none;stroke:#ffffff;stroke-linecap:round;"/>
     </g>
     <g id="text_5">
      <!-- 0.8 -->
      <defs>
       <path d="M 31.78125 34.625 
Q 24.75 34.625 20.71875 30.859375 
Q 16.703125 27.09375 16.703125 20.515625 
Q 16.703125 13.921875 20.71875 10.15625 
Q 24.75 6.390625 31.78125 6.390625 
Q 38.8125 6.390625 42.859375 10.171875 
Q 46.921875 13.96875 46.921875 20.515625 
Q 46.921875 27.09375 42.890625 30.859375 
Q 38.875 34.625 31.78125 34.625 
z
M 21.921875 38.8125 
Q 15.578125 40.375 12.03125 44.71875 
Q 8.5 49.078125 8.5 55.328125 
Q 8.5 64.0625 14.71875 69.140625 
Q 20.953125 74.21875 31.78125 74.21875 
Q 42.671875 74.21875 48.875 69.140625 
Q 55.078125 64.0625 55.078125 55.328125 
Q 55.078125 49.078125 51.53125 44.71875 
Q 48 40.375 41.703125 38.8125 
Q 48.828125 37.15625 52.796875 32.3125 
Q 56.78125 27.484375 56.78125 20.515625 
Q 56.78125 9.90625 50.3125 4.234375 
Q 43.84375 -1.421875 31.78125 -1.421875 
Q 19.734375 -1.421875 13.25 4.234375 
Q 6.78125 9.90625 6.78125 20.515625 
Q 6.78125 27.484375 10.78125 32.3125 
Q 14.796875 37.15625 21.921875 38.8125 
z
M 18.3125 54.390625 
Q 18.3125 48.734375 21.84375 45.5625 
Q 25.390625 42.390625 31.78125 42.390625 
Q 38.140625 42.390625 41.71875 45.5625 
Q 45.3125 48.734375 45.3125 54.390625 
Q 45.3125 60.0625 41.71875 63.234375 
Q 38.140625 66.40625 31.78125 66.40625 
Q 25.390625 66.40625 21.84375 63.234375 
Q 18.3125 60.0625 18.3125 54.390625 
z
" id="DejaVuSans-38"/>
      </defs>
      <g style="fill:#262626;" transform="translate(417.843227 326.958281)scale(0.11 -0.11)">
       <use xlink:href="#DejaVuSans-30"/>
       <use x="63.623047" xlink:href="#DejaVuSans-2e"/>
       <use x="95.410156" xlink:href="#DejaVuSans-38"/>
      </g>
     </g>
    </g>
    <g id="xtick_6">
     <g id="line2d_6">
      <path clip-path="url(#p210fd5a8b1)" d="M 520.785636 309.1 
L 520.785636 13.2 
" style="fill:none;stroke:#ffffff;stroke-linecap:round;"/>
     </g>
     <g id="text_6">
      <!-- 1.0 -->
      <defs>
       <path d="M 12.40625 8.296875 
L 28.515625 8.296875 
L 28.515625 63.921875 
L 10.984375 60.40625 
L 10.984375 69.390625 
L 28.421875 72.90625 
L 38.28125 72.90625 
L 38.28125 8.296875 
L 54.390625 8.296875 
L 54.390625 0 
L 12.40625 0 
z
" id="DejaVuSans-31"/>
      </defs>
      <g style="fill:#262626;" transform="translate(512.038917 326.958281)scale(0.11 -0.11)">
       <use xlink:href="#DejaVuSans-31"/>
       <use x="63.623047" xlink:href="#DejaVuSans-2e"/>
       <use x="95.410156" xlink:href="#DejaVuSans-30"/>
      </g>
     </g>
    </g>
    <g id="text_7">
     <!-- False Positive Rate -->
     <defs>
      <path d="M 9.8125 72.90625 
L 51.703125 72.90625 
L 51.703125 64.59375 
L 19.671875 64.59375 
L 19.671875 43.109375 
L 48.578125 43.109375 
L 48.578125 34.8125 
L 19.671875 34.8125 
L 19.671875 0 
L 9.8125 0 
z
" id="DejaVuSans-46"/>
      <path d="M 34.28125 27.484375 
Q 23.390625 27.484375 19.1875 25 
Q 14.984375 22.515625 14.984375 16.5 
Q 14.984375 11.71875 18.140625 8.90625 
Q 21.296875 6.109375 26.703125 6.109375 
Q 34.1875 6.109375 38.703125 11.40625 
Q 43.21875 16.703125 43.21875 25.484375 
L 43.21875 27.484375 
z
M 52.203125 31.203125 
L 52.203125 0 
L 43.21875 0 
L 43.21875 8.296875 
Q 40.140625 3.328125 35.546875 0.953125 
Q 30.953125 -1.421875 24.3125 -1.421875 
Q 15.921875 -1.421875 10.953125 3.296875 
Q 6 8.015625 6 15.921875 
Q 6 25.140625 12.171875 29.828125 
Q 18.359375 34.515625 30.609375 34.515625 
L 43.21875 34.515625 
L 43.21875 35.40625 
Q 43.21875 41.609375 39.140625 45 
Q 35.0625 48.390625 27.6875 48.390625 
Q 23 48.390625 18.546875 47.265625 
Q 14.109375 46.140625 10.015625 43.890625 
L 10.015625 52.203125 
Q 14.9375 54.109375 19.578125 55.046875 
Q 24.21875 56 28.609375 56 
Q 40.484375 56 46.34375 49.84375 
Q 52.203125 43.703125 52.203125 31.203125 
z
" id="DejaVuSans-61"/>
      <path d="M 9.421875 75.984375 
L 18.40625 75.984375 
L 18.40625 0 
L 9.421875 0 
z
" id="DejaVuSans-6c"/>
      <path d="M 44.28125 53.078125 
L 44.28125 44.578125 
Q 40.484375 46.53125 36.375 47.5 
Q 32.28125 48.484375 27.875 48.484375 
Q 21.1875 48.484375 17.84375 46.4375 
Q 14.5 44.390625 14.5 40.28125 
Q 14.5 37.15625 16.890625 35.375 
Q 19.28125 33.59375 26.515625 31.984375 
L 29.59375 31.296875 
Q 39.15625 29.25 43.1875 25.515625 
Q 47.21875 21.78125 47.21875 15.09375 
Q 47.21875 7.46875 41.1875 3.015625 
Q 35.15625 -1.421875 24.609375 -1.421875 
Q 20.21875 -1.421875 15.453125 -0.5625 
Q 10.6875 0.296875 5.421875 2 
L 5.421875 11.28125 
Q 10.40625 8.6875 15.234375 7.390625 
Q 20.0625 6.109375 24.8125 6.109375 
Q 31.15625 6.109375 34.5625 8.28125 
Q 37.984375 10.453125 37.984375 14.40625 
Q 37.984375 18.0625 35.515625 20.015625 
Q 33.0625 21.96875 24.703125 23.78125 
L 21.578125 24.515625 
Q 13.234375 26.265625 9.515625 29.90625 
Q 5.8125 33.546875 5.8125 39.890625 
Q 5.8125 47.609375 11.28125 51.796875 
Q 16.75 56 26.8125 56 
Q 31.78125 56 36.171875 55.265625 
Q 40.578125 54.546875 44.28125 53.078125 
z
" id="DejaVuSans-73"/>
      <path d="M 56.203125 29.59375 
L 56.203125 25.203125 
L 14.890625 25.203125 
Q 15.484375 15.921875 20.484375 11.0625 
Q 25.484375 6.203125 34.421875 6.203125 
Q 39.59375 6.203125 44.453125 7.46875 
Q 49.3125 8.734375 54.109375 11.28125 
L 54.109375 2.78125 
Q 49.265625 0.734375 44.1875 -0.34375 
Q 39.109375 -1.421875 33.890625 -1.421875 
Q 20.796875 -1.421875 13.15625 6.1875 
Q 5.515625 13.8125 5.515625 26.8125 
Q 5.515625 40.234375 12.765625 48.109375 
Q 20.015625 56 32.328125 56 
Q 43.359375 56 49.78125 48.890625 
Q 56.203125 41.796875 56.203125 29.59375 
z
M 47.21875 32.234375 
Q 47.125 39.59375 43.09375 43.984375 
Q 39.0625 48.390625 32.421875 48.390625 
Q 24.90625 48.390625 20.390625 44.140625 
Q 15.875 39.890625 15.1875 32.171875 
z
" id="DejaVuSans-65"/>
      <path id="DejaVuSans-20"/>
      <path d="M 19.671875 64.796875 
L 19.671875 37.40625 
L 32.078125 37.40625 
Q 38.96875 37.40625 42.71875 40.96875 
Q 46.484375 44.53125 46.484375 51.125 
Q 46.484375 57.671875 42.71875 61.234375 
Q 38.96875 64.796875 32.078125 64.796875 
z
M 9.8125 72.90625 
L 32.078125 72.90625 
Q 44.34375 72.90625 50.609375 67.359375 
Q 56.890625 61.8125 56.890625 51.125 
Q 56.890625 40.328125 50.609375 34.8125 
Q 44.34375 29.296875 32.078125 29.296875 
L 19.671875 29.296875 
L 19.671875 0 
L 9.8125 0 
z
" id="DejaVuSans-50"/>
      <path d="M 30.609375 48.390625 
Q 23.390625 48.390625 19.1875 42.75 
Q 14.984375 37.109375 14.984375 27.296875 
Q 14.984375 17.484375 19.15625 11.84375 
Q 23.34375 6.203125 30.609375 6.203125 
Q 37.796875 6.203125 41.984375 11.859375 
Q 46.1875 17.53125 46.1875 27.296875 
Q 46.1875 37.015625 41.984375 42.703125 
Q 37.796875 48.390625 30.609375 48.390625 
z
M 30.609375 56 
Q 42.328125 56 49.015625 48.375 
Q 55.71875 40.765625 55.71875 27.296875 
Q 55.71875 13.875 49.015625 6.21875 
Q 42.328125 -1.421875 30.609375 -1.421875 
Q 18.84375 -1.421875 12.171875 6.21875 
Q 5.515625 13.875 5.515625 27.296875 
Q 5.515625 40.765625 12.171875 48.375 
Q 18.84375 56 30.609375 56 
z
" id="DejaVuSans-6f"/>
      <path d="M 9.421875 54.6875 
L 18.40625 54.6875 
L 18.40625 0 
L 9.421875 0 
z
M 9.421875 75.984375 
L 18.40625 75.984375 
L 18.40625 64.59375 
L 9.421875 64.59375 
z
" id="DejaVuSans-69"/>
      <path d="M 18.3125 70.21875 
L 18.3125 54.6875 
L 36.8125 54.6875 
L 36.8125 47.703125 
L 18.3125 47.703125 
L 18.3125 18.015625 
Q 18.3125 11.328125 20.140625 9.421875 
Q 21.96875 7.515625 27.59375 7.515625 
L 36.8125 7.515625 
L 36.8125 0 
L 27.59375 0 
Q 17.1875 0 13.234375 3.875 
Q 9.28125 7.765625 9.28125 18.015625 
L 9.28125 47.703125 
L 2.6875 47.703125 
L 2.6875 54.6875 
L 9.28125 54.6875 
L 9.28125 70.21875 
z
" id="DejaVuSans-74"/>
      <path d="M 2.984375 54.6875 
L 12.5 54.6875 
L 29.59375 8.796875 
L 46.6875 54.6875 
L 56.203125 54.6875 
L 35.6875 0 
L 23.484375 0 
z
" id="DejaVuSans-76"/>
      <path d="M 44.390625 34.1875 
Q 47.5625 33.109375 50.5625 29.59375 
Q 53.5625 26.078125 56.59375 19.921875 
L 66.609375 0 
L 56 0 
L 46.6875 18.703125 
Q 43.0625 26.03125 39.671875 28.421875 
Q 36.28125 30.8125 30.421875 30.8125 
L 19.671875 30.8125 
L 19.671875 0 
L 9.8125 0 
L 9.8125 72.90625 
L 32.078125 72.90625 
Q 44.578125 72.90625 50.734375 67.671875 
Q 56.890625 62.453125 56.890625 51.90625 
Q 56.890625 45.015625 53.6875 40.46875 
Q 50.484375 35.9375 44.390625 34.1875 
z
M 19.671875 64.796875 
L 19.671875 38.921875 
L 32.078125 38.921875 
Q 39.203125 38.921875 42.84375 42.21875 
Q 46.484375 45.515625 46.484375 51.90625 
Q 46.484375 58.296875 42.84375 61.546875 
Q 39.203125 64.796875 32.078125 64.796875 
z
" id="DejaVuSans-52"/>
     </defs>
     <g style="fill:#262626;" transform="translate(228.649849 342.364062)scale(0.12 -0.12)">
      <use xlink:href="#DejaVuSans-46"/>
      <use x="57.378906" xlink:href="#DejaVuSans-61"/>
      <use x="118.658203" xlink:href="#DejaVuSans-6c"/>
      <use x="146.441406" xlink:href="#DejaVuSans-73"/>
      <use x="198.541016" xlink:href="#DejaVuSans-65"/>
      <use x="260.064453" xlink:href="#DejaVuSans-20"/>
      <use x="291.851562" xlink:href="#DejaVuSans-50"/>
      <use x="352.107422" xlink:href="#DejaVuSans-6f"/>
      <use x="413.289062" xlink:href="#DejaVuSans-73"/>
      <use x="465.388672" xlink:href="#DejaVuSans-69"/>
      <use x="493.171875" xlink:href="#DejaVuSans-74"/>
      <use x="532.380859" xlink:href="#DejaVuSans-69"/>
      <use x="560.164062" xlink:href="#DejaVuSans-76"/>
      <use x="619.34375" xlink:href="#DejaVuSans-65"/>
      <use x="680.867188" xlink:href="#DejaVuSans-20"/>
      <use x="712.654297" xlink:href="#DejaVuSans-52"/>
      <use x="782.105469" xlink:href="#DejaVuSans-61"/>
      <use x="843.384766" xlink:href="#DejaVuSans-74"/>
      <use x="882.59375" xlink:href="#DejaVuSans-65"/>
     </g>
    </g>
   </g>
   <g id="matplotlib.axis_2">
    <g id="ytick_1">
     <g id="line2d_7">
      <path clip-path="url(#p210fd5a8b1)" d="M 49.807188 309.1 
L 520.785636 309.1 
" style="fill:none;stroke:#ffffff;stroke-linecap:round;"/>
     </g>
     <g id="text_8">
      <!-- 0.0 -->
      <g style="fill:#262626;" transform="translate(22.81375 313.279141)scale(0.11 -0.11)">
       <use xlink:href="#DejaVuSans-30"/>
       <use x="63.623047" xlink:href="#DejaVuSans-2e"/>
       <use x="95.410156" xlink:href="#DejaVuSans-30"/>
      </g>
     </g>
    </g>
    <g id="ytick_2">
     <g id="line2d_8">
      <path clip-path="url(#p210fd5a8b1)" d="M 49.807188 249.92 
L 520.785636 249.92 
" style="fill:none;stroke:#ffffff;stroke-linecap:round;"/>
     </g>
     <g id="text_9">
      <!-- 0.2 -->
      <g style="fill:#262626;" transform="translate(22.81375 254.099141)scale(0.11 -0.11)">
       <use xlink:href="#DejaVuSans-30"/>
       <use x="63.623047" xlink:href="#DejaVuSans-2e"/>
       <use x="95.410156" xlink:href="#DejaVuSans-32"/>
      </g>
     </g>
    </g>
    <g id="ytick_3">
     <g id="line2d_9">
      <path clip-path="url(#p210fd5a8b1)" d="M 49.807188 190.74 
L 520.785636 190.74 
" style="fill:none;stroke:#ffffff;stroke-linecap:round;"/>
     </g>
     <g id="text_10">
      <!-- 0.4 -->
      <g style="fill:#262626;" transform="translate(22.81375 194.919141)scale(0.11 -0.11)">
       <use xlink:href="#DejaVuSans-30"/>
       <use x="63.623047" xlink:href="#DejaVuSans-2e"/>
       <use x="95.410156" xlink:href="#DejaVuSans-34"/>
      </g>
     </g>
    </g>
    <g id="ytick_4">
     <g id="line2d_10">
      <path clip-path="url(#p210fd5a8b1)" d="M 49.807188 131.56 
L 520.785636 131.56 
" style="fill:none;stroke:#ffffff;stroke-linecap:round;"/>
     </g>
     <g id="text_11">
      <!-- 0.6 -->
      <g style="fill:#262626;" transform="translate(22.81375 135.739141)scale(0.11 -0.11)">
       <use xlink:href="#DejaVuSans-30"/>
       <use x="63.623047" xlink:href="#DejaVuSans-2e"/>
       <use x="95.410156" xlink:href="#DejaVuSans-36"/>
      </g>
     </g>
    </g>
    <g id="ytick_5">
     <g id="line2d_11">
      <path clip-path="url(#p210fd5a8b1)" d="M 49.807188 72.38 
L 520.785636 72.38 
" style="fill:none;stroke:#ffffff;stroke-linecap:round;"/>
     </g>
     <g id="text_12">
      <!-- 0.8 -->
      <g style="fill:#262626;" transform="translate(22.81375 76.559141)scale(0.11 -0.11)">
       <use xlink:href="#DejaVuSans-30"/>
       <use x="63.623047" xlink:href="#DejaVuSans-2e"/>
       <use x="95.410156" xlink:href="#DejaVuSans-38"/>
      </g>
     </g>
    </g>
    <g id="ytick_6">
     <g id="line2d_12">
      <path clip-path="url(#p210fd5a8b1)" d="M 49.807188 13.2 
L 520.785636 13.2 
" style="fill:none;stroke:#ffffff;stroke-linecap:round;"/>
     </g>
     <g id="text_13">
      <!-- 1.0 -->
      <g style="fill:#262626;" transform="translate(22.81375 17.379141)scale(0.11 -0.11)">
       <use xlink:href="#DejaVuSans-31"/>
       <use x="63.623047" xlink:href="#DejaVuSans-2e"/>
       <use x="95.410156" xlink:href="#DejaVuSans-30"/>
      </g>
     </g>
    </g>
    <g id="text_14">
     <!-- True Positive Rate -->
     <defs>
      <path d="M -0.296875 72.90625 
L 61.375 72.90625 
L 61.375 64.59375 
L 35.5 64.59375 
L 35.5 0 
L 25.59375 0 
L 25.59375 64.59375 
L -0.296875 64.59375 
z
" id="DejaVuSans-54"/>
      <path d="M 41.109375 46.296875 
Q 39.59375 47.171875 37.8125 47.578125 
Q 36.03125 48 33.890625 48 
Q 26.265625 48 22.1875 43.046875 
Q 18.109375 38.09375 18.109375 28.8125 
L 18.109375 0 
L 9.078125 0 
L 9.078125 54.6875 
L 18.109375 54.6875 
L 18.109375 46.1875 
Q 20.953125 51.171875 25.484375 53.578125 
Q 30.03125 56 36.53125 56 
Q 37.453125 56 38.578125 55.875 
Q 39.703125 55.765625 41.0625 55.515625 
z
" id="DejaVuSans-72"/>
      <path d="M 8.5 21.578125 
L 8.5 54.6875 
L 17.484375 54.6875 
L 17.484375 21.921875 
Q 17.484375 14.15625 20.5 10.265625 
Q 23.53125 6.390625 29.59375 6.390625 
Q 36.859375 6.390625 41.078125 11.03125 
Q 45.3125 15.671875 45.3125 23.6875 
L 45.3125 54.6875 
L 54.296875 54.6875 
L 54.296875 0 
L 45.3125 0 
L 45.3125 8.40625 
Q 42.046875 3.421875 37.71875 1 
Q 33.40625 -1.421875 27.6875 -1.421875 
Q 18.265625 -1.421875 13.375 4.4375 
Q 8.5 10.296875 8.5 21.578125 
z
M 31.109375 56 
z
" id="DejaVuSans-75"/>
     </defs>
     <g style="fill:#262626;" transform="translate(16.318125 215.805312)rotate(-90)scale(0.12 -0.12)">
      <use xlink:href="#DejaVuSans-54"/>
      <use x="60.865234" xlink:href="#DejaVuSans-72"/>
      <use x="101.978516" xlink:href="#DejaVuSans-75"/>
      <use x="165.357422" xlink:href="#DejaVuSans-65"/>
      <use x="226.880859" xlink:href="#DejaVuSans-20"/>
      <use x="258.667969" xlink:href="#DejaVuSans-50"/>
      <use x="318.923828" xlink:href="#DejaVuSans-6f"/>
      <use x="380.105469" xlink:href="#DejaVuSans-73"/>
      <use x="432.205078" xlink:href="#DejaVuSans-69"/>
      <use x="459.988281" xlink:href="#DejaVuSans-74"/>
      <use x="499.197266" xlink:href="#DejaVuSans-69"/>
      <use x="526.980469" xlink:href="#DejaVuSans-76"/>
      <use x="586.160156" xlink:href="#DejaVuSans-65"/>
      <use x="647.683594" xlink:href="#DejaVuSans-20"/>
      <use x="679.470703" xlink:href="#DejaVuSans-52"/>
      <use x="748.921875" xlink:href="#DejaVuSans-61"/>
      <use x="810.201172" xlink:href="#DejaVuSans-74"/>
      <use x="849.410156" xlink:href="#DejaVuSans-65"/>
     </g>
    </g>
   </g>
   <g id="PathCollection_1">
    <defs>
     <path d="M 0 3 
C 0.795609 3 1.55874 2.683901 2.12132 2.12132 
C 2.683901 1.55874 3 0.795609 3 0 
C 3 -0.795609 2.683901 -1.55874 2.12132 -2.12132 
C 1.55874 -2.683901 0.795609 -3 0 -3 
C -0.795609 -3 -1.55874 -2.683901 -2.12132 -2.12132 
C -2.683901 -1.55874 -3 -0.795609 -3 0 
C -3 0.795609 -2.683901 1.55874 -2.12132 2.12132 
C -1.55874 2.683901 -0.795609 3 0 3 
z
" id="m6d07813fbd" style="stroke:#4c72b0;"/>
    </defs>
    <g clip-path="url(#p210fd5a8b1)">
     <use style="fill:#4c72b0;stroke:#4c72b0;" x="51.278995" xlink:href="#m6d07813fbd" y="294.305"/>
     <use style="fill:#4c72b0;stroke:#4c72b0;" x="55.0568" xlink:href="#m6d07813fbd" y="285.541425"/>
     <use style="fill:#4c72b0;stroke:#4c72b0;" x="58.834605" xlink:href="#m6d07813fbd" y="277.088321"/>
     <use style="fill:#4c72b0;stroke:#4c72b0;" x="62.61241" xlink:href="#m6d07813fbd" y="269.320606"/>
     <use style="fill:#4c72b0;stroke:#4c72b0;" x="66.390214" xlink:href="#m6d07813fbd" y="261.552891"/>
     <use style="fill:#4c72b0;stroke:#4c72b0;" x="70.168019" xlink:href="#m6d07813fbd" y="253.785177"/>
     <use style="fill:#4c72b0;stroke:#4c72b0;" x="73.945824" xlink:href="#m6d07813fbd" y="246.017462"/>
     <use style="fill:#4c72b0;stroke:#4c72b0;" x="77.723629" xlink:href="#m6d07813fbd" y="238.249747"/>
     <use style="fill:#4c72b0;stroke:#4c72b0;" x="81.501434" xlink:href="#m6d07813fbd" y="233.879326"/>
     <use style="fill:#4c72b0;stroke:#4c72b0;" x="85.279239" xlink:href="#m6d07813fbd" y="231.795305"/>
     <use style="fill:#4c72b0;stroke:#4c72b0;" x="89.057043" xlink:href="#m6d07813fbd" y="229.711284"/>
     <use style="fill:#4c72b0;stroke:#4c72b0;" x="92.834848" xlink:href="#m6d07813fbd" y="227.627263"/>
     <use style="fill:#4c72b0;stroke:#4c72b0;" x="96.612653" xlink:href="#m6d07813fbd" y="225.543242"/>
     <use style="fill:#4c72b0;stroke:#4c72b0;" x="100.390458" xlink:href="#m6d07813fbd" y="223.459221"/>
     <use style="fill:#4c72b0;stroke:#4c72b0;" x="104.168263" xlink:href="#m6d07813fbd" y="221.3752"/>
     <use style="fill:#4c72b0;stroke:#4c72b0;" x="107.946067" xlink:href="#m6d07813fbd" y="219.291179"/>
     <use style="fill:#4c72b0;stroke:#4c72b0;" x="111.723872" xlink:href="#m6d07813fbd" y="217.207158"/>
     <use style="fill:#4c72b0;stroke:#4c72b0;" x="115.501677" xlink:href="#m6d07813fbd" y="215.123137"/>
     <use style="fill:#4c72b0;stroke:#4c72b0;" x="119.279482" xlink:href="#m6d07813fbd" y="213.039116"/>
     <use style="fill:#4c72b0;stroke:#4c72b0;" x="123.057287" xlink:href="#m6d07813fbd" y="210.955095"/>
     <use style="fill:#4c72b0;stroke:#4c72b0;" x="126.835092" xlink:href="#m6d07813fbd" y="208.871074"/>
     <use style="fill:#4c72b0;stroke:#4c72b0;" x="130.612896" xlink:href="#m6d07813fbd" y="206.787053"/>
     <use style="fill:#4c72b0;stroke:#4c72b0;" x="134.390701" xlink:href="#m6d07813fbd" y="204.703032"/>
     <use style="fill:#4c72b0;stroke:#4c72b0;" x="138.168506" xlink:href="#m6d07813fbd" y="202.619011"/>
     <use style="fill:#4c72b0;stroke:#4c72b0;" x="141.946311" xlink:href="#m6d07813fbd" y="200.53499"/>
     <use style="fill:#4c72b0;stroke:#4c72b0;" x="145.724116" xlink:href="#m6d07813fbd" y="198.450969"/>
     <use style="fill:#4c72b0;stroke:#4c72b0;" x="149.501921" xlink:href="#m6d07813fbd" y="196.366948"/>
     <use style="fill:#4c72b0;stroke:#4c72b0;" x="153.279725" xlink:href="#m6d07813fbd" y="194.282927"/>
     <use style="fill:#4c72b0;stroke:#4c72b0;" x="157.05753" xlink:href="#m6d07813fbd" y="192.198906"/>
     <use style="fill:#4c72b0;stroke:#4c72b0;" x="160.835335" xlink:href="#m6d07813fbd" y="190.237456"/>
     <use style="fill:#4c72b0;stroke:#4c72b0;" x="164.61314" xlink:href="#m6d07813fbd" y="188.562067"/>
     <use style="fill:#4c72b0;stroke:#4c72b0;" x="168.390945" xlink:href="#m6d07813fbd" y="186.886678"/>
     <use style="fill:#4c72b0;stroke:#4c72b0;" x="172.168749" xlink:href="#m6d07813fbd" y="185.211288"/>
     <use style="fill:#4c72b0;stroke:#4c72b0;" x="175.946554" xlink:href="#m6d07813fbd" y="183.535899"/>
     <use style="fill:#4c72b0;stroke:#4c72b0;" x="179.724359" xlink:href="#m6d07813fbd" y="181.860509"/>
     <use style="fill:#4c72b0;stroke:#4c72b0;" x="183.502164" xlink:href="#m6d07813fbd" y="180.18512"/>
     <use style="fill:#4c72b0;stroke:#4c72b0;" x="187.279969" xlink:href="#m6d07813fbd" y="178.50973"/>
     <use style="fill:#4c72b0;stroke:#4c72b0;" x="191.057774" xlink:href="#m6d07813fbd" y="176.834341"/>
     <use style="fill:#4c72b0;stroke:#4c72b0;" x="194.835578" xlink:href="#m6d07813fbd" y="175.158952"/>
     <use style="fill:#4c72b0;stroke:#4c72b0;" x="198.613383" xlink:href="#m6d07813fbd" y="173.483562"/>
     <use style="fill:#4c72b0;stroke:#4c72b0;" x="202.391188" xlink:href="#m6d07813fbd" y="171.808173"/>
     <use style="fill:#4c72b0;stroke:#4c72b0;" x="206.168993" xlink:href="#m6d07813fbd" y="170.132783"/>
     <use style="fill:#4c72b0;stroke:#4c72b0;" x="209.946798" xlink:href="#m6d07813fbd" y="168.457394"/>
     <use style="fill:#4c72b0;stroke:#4c72b0;" x="213.724603" xlink:href="#m6d07813fbd" y="166.782004"/>
     <use style="fill:#4c72b0;stroke:#4c72b0;" x="217.502407" xlink:href="#m6d07813fbd" y="165.106615"/>
     <use style="fill:#4c72b0;stroke:#4c72b0;" x="221.280212" xlink:href="#m6d07813fbd" y="163.431225"/>
     <use style="fill:#4c72b0;stroke:#4c72b0;" x="225.058017" xlink:href="#m6d07813fbd" y="161.755836"/>
     <use style="fill:#4c72b0;stroke:#4c72b0;" x="228.835822" xlink:href="#m6d07813fbd" y="160.476578"/>
     <use style="fill:#4c72b0;stroke:#4c72b0;" x="232.613627" xlink:href="#m6d07813fbd" y="159.421703"/>
     <use style="fill:#4c72b0;stroke:#4c72b0;" x="236.391431" xlink:href="#m6d07813fbd" y="158.366828"/>
     <use style="fill:#4c72b0;stroke:#4c72b0;" x="240.169236" xlink:href="#m6d07813fbd" y="157.311953"/>
     <use style="fill:#4c72b0;stroke:#4c72b0;" x="243.947041" xlink:href="#m6d07813fbd" y="156.257078"/>
     <use style="fill:#4c72b0;stroke:#4c72b0;" x="247.724846" xlink:href="#m6d07813fbd" y="155.202203"/>
     <use style="fill:#4c72b0;stroke:#4c72b0;" x="251.502651" xlink:href="#m6d07813fbd" y="154.147329"/>
     <use style="fill:#4c72b0;stroke:#4c72b0;" x="255.280456" xlink:href="#m6d07813fbd" y="153.092454"/>
     <use style="fill:#4c72b0;stroke:#4c72b0;" x="259.05826" xlink:href="#m6d07813fbd" y="152.037579"/>
     <use style="fill:#4c72b0;stroke:#4c72b0;" x="262.836065" xlink:href="#m6d07813fbd" y="150.982704"/>
     <use style="fill:#4c72b0;stroke:#4c72b0;" x="266.61387" xlink:href="#m6d07813fbd" y="149.927829"/>
     <use style="fill:#4c72b0;stroke:#4c72b0;" x="270.391675" xlink:href="#m6d07813fbd" y="148.872954"/>
     <use style="fill:#4c72b0;stroke:#4c72b0;" x="274.16948" xlink:href="#m6d07813fbd" y="147.81808"/>
     <use style="fill:#4c72b0;stroke:#4c72b0;" x="277.947285" xlink:href="#m6d07813fbd" y="146.763205"/>
     <use style="fill:#4c72b0;stroke:#4c72b0;" x="281.725089" xlink:href="#m6d07813fbd" y="145.70833"/>
     <use style="fill:#4c72b0;stroke:#4c72b0;" x="285.502894" xlink:href="#m6d07813fbd" y="144.653455"/>
     <use style="fill:#4c72b0;stroke:#4c72b0;" x="289.280699" xlink:href="#m6d07813fbd" y="143.59858"/>
     <use style="fill:#4c72b0;stroke:#4c72b0;" x="293.058504" xlink:href="#m6d07813fbd" y="142.543705"/>
     <use style="fill:#4c72b0;stroke:#4c72b0;" x="296.836309" xlink:href="#m6d07813fbd" y="141.488831"/>
     <use style="fill:#4c72b0;stroke:#4c72b0;" x="300.614113" xlink:href="#m6d07813fbd" y="140.433956"/>
     <use style="fill:#4c72b0;stroke:#4c72b0;" x="304.391918" xlink:href="#m6d07813fbd" y="139.379081"/>
     <use style="fill:#4c72b0;stroke:#4c72b0;" x="308.169723" xlink:href="#m6d07813fbd" y="138.324206"/>
     <use style="fill:#4c72b0;stroke:#4c72b0;" x="311.947528" xlink:href="#m6d07813fbd" y="137.269331"/>
     <use style="fill:#4c72b0;stroke:#4c72b0;" x="315.725333" xlink:href="#m6d07813fbd" y="136.214456"/>
     <use style="fill:#4c72b0;stroke:#4c72b0;" x="319.503138" xlink:href="#m6d07813fbd" y="135.159582"/>
     <use style="fill:#4c72b0;stroke:#4c72b0;" x="323.280942" xlink:href="#m6d07813fbd" y="134.104707"/>
     <use style="fill:#4c72b0;stroke:#4c72b0;" x="327.058747" xlink:href="#m6d07813fbd" y="133.049832"/>
     <use style="fill:#4c72b0;stroke:#4c72b0;" x="330.836552" xlink:href="#m6d07813fbd" y="131.994957"/>
     <use style="fill:#4c72b0;stroke:#4c72b0;" x="334.614357" xlink:href="#m6d07813fbd" y="130.85277"/>
     <use style="fill:#4c72b0;stroke:#4c72b0;" x="338.392162" xlink:href="#m6d07813fbd" y="129.649321"/>
     <use style="fill:#4c72b0;stroke:#4c72b0;" x="342.169967" xlink:href="#m6d07813fbd" y="128.445872"/>
     <use style="fill:#4c72b0;stroke:#4c72b0;" x="345.947771" xlink:href="#m6d07813fbd" y="127.242424"/>
     <use style="fill:#4c72b0;stroke:#4c72b0;" x="349.725576" xlink:href="#m6d07813fbd" y="126.038975"/>
     <use style="fill:#4c72b0;stroke:#4c72b0;" x="353.503381" xlink:href="#m6d07813fbd" y="124.835526"/>
     <use style="fill:#4c72b0;stroke:#4c72b0;" x="357.281186" xlink:href="#m6d07813fbd" y="123.632077"/>
     <use style="fill:#4c72b0;stroke:#4c72b0;" x="361.058991" xlink:href="#m6d07813fbd" y="122.428629"/>
     <use style="fill:#4c72b0;stroke:#4c72b0;" x="364.836795" xlink:href="#m6d07813fbd" y="121.22518"/>
     <use style="fill:#4c72b0;stroke:#4c72b0;" x="368.6146" xlink:href="#m6d07813fbd" y="120.021731"/>
     <use style="fill:#4c72b0;stroke:#4c72b0;" x="372.392405" xlink:href="#m6d07813fbd" y="118.818282"/>
     <use style="fill:#4c72b0;stroke:#4c72b0;" x="376.17021" xlink:href="#m6d07813fbd" y="117.614834"/>
     <use style="fill:#4c72b0;stroke:#4c72b0;" x="379.948015" xlink:href="#m6d07813fbd" y="116.411385"/>
     <use style="fill:#4c72b0;stroke:#4c72b0;" x="383.72582" xlink:href="#m6d07813fbd" y="115.207936"/>
     <use style="fill:#4c72b0;stroke:#4c72b0;" x="387.503624" xlink:href="#m6d07813fbd" y="114.004487"/>
     <use style="fill:#4c72b0;stroke:#4c72b0;" x="391.281429" xlink:href="#m6d07813fbd" y="112.801039"/>
     <use style="fill:#4c72b0;stroke:#4c72b0;" x="395.059234" xlink:href="#m6d07813fbd" y="111.59759"/>
     <use style="fill:#4c72b0;stroke:#4c72b0;" x="398.837039" xlink:href="#m6d07813fbd" y="110.394141"/>
     <use style="fill:#4c72b0;stroke:#4c72b0;" x="402.614844" xlink:href="#m6d07813fbd" y="109.190692"/>
     <use style="fill:#4c72b0;stroke:#4c72b0;" x="406.392649" xlink:href="#m6d07813fbd" y="107.987244"/>
     <use style="fill:#4c72b0;stroke:#4c72b0;" x="410.170453" xlink:href="#m6d07813fbd" y="106.783795"/>
     <use style="fill:#4c72b0;stroke:#4c72b0;" x="413.948258" xlink:href="#m6d07813fbd" y="105.580346"/>
     <use style="fill:#4c72b0;stroke:#4c72b0;" x="417.726063" xlink:href="#m6d07813fbd" y="104.376897"/>
     <use style="fill:#4c72b0;stroke:#4c72b0;" x="421.503868" xlink:href="#m6d07813fbd" y="103.173449"/>
     <use style="fill:#4c72b0;stroke:#4c72b0;" x="425.281673" xlink:href="#m6d07813fbd" y="101.97"/>
    </g>
   </g>
   <g id="PathCollection_2">
    <defs>
     <path d="M -3 3 
L 3 -3 
M -3 -3 
L 3 3 
" id="mdfbc6ba753" style="stroke:#000000;stroke-width:1.5;"/>
    </defs>
    <g clip-path="url(#p210fd5a8b1)">
     <use style="stroke:#000000;stroke-width:1.5;" x="51.278995" xlink:href="#mdfbc6ba753" y="294.305"/>
     <use style="stroke:#000000;stroke-width:1.5;" x="57.656828" xlink:href="#mdfbc6ba753" y="279.51"/>
     <use style="stroke:#000000;stroke-width:1.5;" x="79.243341" xlink:href="#mdfbc6ba753" y="235.125"/>
     <use style="stroke:#000000;stroke-width:1.5;" x="159.702159" xlink:href="#mdfbc6ba753" y="190.74"/>
     <use style="stroke:#000000;stroke-width:1.5;" x="226.424106" xlink:href="#mdfbc6ba753" y="161.15"/>
     <use style="stroke:#000000;stroke-width:1.5;" x="332.394256" xlink:href="#mdfbc6ba753" y="131.56"/>
     <use style="stroke:#000000;stroke-width:1.5;" x="425.281673" xlink:href="#mdfbc6ba753" y="101.97"/>
    </g>
   </g>
   <g id="patch_3">
    <path d="M 49.807188 309.1 
L 49.807188 13.2 
" style="fill:none;stroke:#ffffff;stroke-linecap:square;stroke-linejoin:miter;stroke-width:1.25;"/>
   </g>
   <g id="patch_4">
    <path d="M 520.785636 309.1 
L 520.785636 13.2 
" style="fill:none;stroke:#ffffff;stroke-linecap:square;stroke-linejoin:miter;stroke-width:1.25;"/>
   </g>
   <g id="patch_5">
    <path d="M 49.807188 309.1 
L 520.785636 309.1 
" style="fill:none;stroke:#ffffff;stroke-linecap:square;stroke-linejoin:miter;stroke-width:1.25;"/>
   </g>
   <g id="patch_6">
    <path d="M 49.807188 13.2 
L 520.785636 13.2 
" style="fill:none;stroke:#ffffff;stroke-linecap:square;stroke-linejoin:miter;stroke-width:1.25;"/>
   </g>
   <g id="text_15">
    <!-- ROC -->
    <defs>
     <path d="M 39.40625 66.21875 
Q 28.65625 66.21875 22.328125 58.203125 
Q 16.015625 50.203125 16.015625 36.375 
Q 16.015625 22.609375 22.328125 14.59375 
Q 28.65625 6.59375 39.40625 6.59375 
Q 50.140625 6.59375 56.421875 14.59375 
Q 62.703125 22.609375 62.703125 36.375 
Q 62.703125 50.203125 56.421875 58.203125 
Q 50.140625 66.21875 39.40625 66.21875 
z
M 39.40625 74.21875 
Q 54.734375 74.21875 63.90625 63.9375 
Q 73.09375 53.65625 73.09375 36.375 
Q 73.09375 19.140625 63.90625 8.859375 
Q 54.734375 -1.421875 39.40625 -1.421875 
Q 24.03125 -1.421875 14.8125 8.828125 
Q 5.609375 19.09375 5.609375 36.375 
Q 5.609375 53.65625 14.8125 63.9375 
Q 24.03125 74.21875 39.40625 74.21875 
z
" id="DejaVuSans-4f"/>
     <path d="M 64.40625 67.28125 
L 64.40625 56.890625 
Q 59.421875 61.53125 53.78125 63.8125 
Q 48.140625 66.109375 41.796875 66.109375 
Q 29.296875 66.109375 22.65625 58.46875 
Q 16.015625 50.828125 16.015625 36.375 
Q 16.015625 21.96875 22.65625 14.328125 
Q 29.296875 6.6875 41.796875 6.6875 
Q 48.140625 6.6875 53.78125 8.984375 
Q 59.421875 11.28125 64.40625 15.921875 
L 64.40625 5.609375 
Q 59.234375 2.09375 53.4375 0.328125 
Q 47.65625 -1.421875 41.21875 -1.421875 
Q 24.65625 -1.421875 15.125 8.703125 
Q 5.609375 18.84375 5.609375 36.375 
Q 5.609375 53.953125 15.125 64.078125 
Q 24.65625 74.21875 41.21875 74.21875 
Q 47.75 74.21875 53.53125 72.484375 
Q 59.328125 70.75 64.40625 67.28125 
z
" id="DejaVuSans-43"/>
    </defs>
    <g style="fill:#262626;" transform="translate(144.002877 101.97)scale(0.3 -0.3)">
     <use xlink:href="#DejaVuSans-52"/>
     <use x="69.482422" xlink:href="#DejaVuSans-4f"/>
     <use x="148.193359" xlink:href="#DejaVuSans-43"/>
    </g>
   </g>
   <g id="legend_1">
    <g id="patch_7">
     <path d="M 353.075167 54.291875 
L 513.085636 54.291875 
Q 515.285636 54.291875 515.285636 52.091875 
L 515.285636 20.9 
Q 515.285636 18.7 513.085636 18.7 
L 353.075167 18.7 
Q 350.875167 18.7 350.875167 20.9 
L 350.875167 52.091875 
Q 350.875167 54.291875 353.075167 54.291875 
z
" style="fill:#eaeaf2;opacity:0.8;stroke:#cccccc;stroke-linejoin:miter;"/>
    </g>
    <g id="PathCollection_3">
     <g>
      <use style="fill:#4c72b0;stroke:#4c72b0;" x="366.275167" xlink:href="#m6d07813fbd" y="28.570781"/>
     </g>
    </g>
    <g id="text_16">
     <!-- Resampled ROC Curve -->
     <defs>
      <path d="M 52 44.1875 
Q 55.375 50.25 60.0625 53.125 
Q 64.75 56 71.09375 56 
Q 79.640625 56 84.28125 50.015625 
Q 88.921875 44.046875 88.921875 33.015625 
L 88.921875 0 
L 79.890625 0 
L 79.890625 32.71875 
Q 79.890625 40.578125 77.09375 44.375 
Q 74.3125 48.1875 68.609375 48.1875 
Q 61.625 48.1875 57.5625 43.546875 
Q 53.515625 38.921875 53.515625 30.90625 
L 53.515625 0 
L 44.484375 0 
L 44.484375 32.71875 
Q 44.484375 40.625 41.703125 44.40625 
Q 38.921875 48.1875 33.109375 48.1875 
Q 26.21875 48.1875 22.15625 43.53125 
Q 18.109375 38.875 18.109375 30.90625 
L 18.109375 0 
L 9.078125 0 
L 9.078125 54.6875 
L 18.109375 54.6875 
L 18.109375 46.1875 
Q 21.1875 51.21875 25.484375 53.609375 
Q 29.78125 56 35.6875 56 
Q 41.65625 56 45.828125 52.96875 
Q 50 49.953125 52 44.1875 
z
" id="DejaVuSans-6d"/>
      <path d="M 18.109375 8.203125 
L 18.109375 -20.796875 
L 9.078125 -20.796875 
L 9.078125 54.6875 
L 18.109375 54.6875 
L 18.109375 46.390625 
Q 20.953125 51.265625 25.265625 53.625 
Q 29.59375 56 35.59375 56 
Q 45.5625 56 51.78125 48.09375 
Q 58.015625 40.1875 58.015625 27.296875 
Q 58.015625 14.40625 51.78125 6.484375 
Q 45.5625 -1.421875 35.59375 -1.421875 
Q 29.59375 -1.421875 25.265625 0.953125 
Q 20.953125 3.328125 18.109375 8.203125 
z
M 48.6875 27.296875 
Q 48.6875 37.203125 44.609375 42.84375 
Q 40.53125 48.484375 33.40625 48.484375 
Q 26.265625 48.484375 22.1875 42.84375 
Q 18.109375 37.203125 18.109375 27.296875 
Q 18.109375 17.390625 22.1875 11.75 
Q 26.265625 6.109375 33.40625 6.109375 
Q 40.53125 6.109375 44.609375 11.75 
Q 48.6875 17.390625 48.6875 27.296875 
z
" id="DejaVuSans-70"/>
      <path d="M 45.40625 46.390625 
L 45.40625 75.984375 
L 54.390625 75.984375 
L 54.390625 0 
L 45.40625 0 
L 45.40625 8.203125 
Q 42.578125 3.328125 38.25 0.953125 
Q 33.9375 -1.421875 27.875 -1.421875 
Q 17.96875 -1.421875 11.734375 6.484375 
Q 5.515625 14.40625 5.515625 27.296875 
Q 5.515625 40.1875 11.734375 48.09375 
Q 17.96875 56 27.875 56 
Q 33.9375 56 38.25 53.625 
Q 42.578125 51.265625 45.40625 46.390625 
z
M 14.796875 27.296875 
Q 14.796875 17.390625 18.875 11.75 
Q 22.953125 6.109375 30.078125 6.109375 
Q 37.203125 6.109375 41.296875 11.75 
Q 45.40625 17.390625 45.40625 27.296875 
Q 45.40625 37.203125 41.296875 42.84375 
Q 37.203125 48.484375 30.078125 48.484375 
Q 22.953125 48.484375 18.875 42.84375 
Q 14.796875 37.203125 14.796875 27.296875 
z
" id="DejaVuSans-64"/>
     </defs>
     <g style="fill:#262626;" transform="translate(386.075167 31.458281)scale(0.11 -0.11)">
      <use xlink:href="#DejaVuSans-52"/>
      <use x="69.419922" xlink:href="#DejaVuSans-65"/>
      <use x="130.943359" xlink:href="#DejaVuSans-73"/>
      <use x="183.042969" xlink:href="#DejaVuSans-61"/>
      <use x="244.322266" xlink:href="#DejaVuSans-6d"/>
      <use x="341.734375" xlink:href="#DejaVuSans-70"/>
      <use x="405.210938" xlink:href="#DejaVuSans-6c"/>
      <use x="432.994141" xlink:href="#DejaVuSans-65"/>
      <use x="494.517578" xlink:href="#DejaVuSans-64"/>
      <use x="557.994141" xlink:href="#DejaVuSans-20"/>
      <use x="589.78125" xlink:href="#DejaVuSans-52"/>
      <use x="659.263672" xlink:href="#DejaVuSans-4f"/>
      <use x="737.974609" xlink:href="#DejaVuSans-43"/>
      <use x="807.798828" xlink:href="#DejaVuSans-20"/>
      <use x="839.585938" xlink:href="#DejaVuSans-43"/>
      <use x="909.410156" xlink:href="#DejaVuSans-75"/>
      <use x="972.789062" xlink:href="#DejaVuSans-72"/>
      <use x="1013.902344" xlink:href="#DejaVuSans-76"/>
      <use x="1073.082031" xlink:href="#DejaVuSans-65"/>
     </g>
    </g>
    <g id="PathCollection_4">
     <g>
      <use style="stroke:#000000;stroke-width:1.5;" x="366.275167" xlink:href="#mdfbc6ba753" y="44.716719"/>
     </g>
    </g>
    <g id="text_17">
     <!-- Original ROC Curve -->
     <defs>
      <path d="M 45.40625 27.984375 
Q 45.40625 37.75 41.375 43.109375 
Q 37.359375 48.484375 30.078125 48.484375 
Q 22.859375 48.484375 18.828125 43.109375 
Q 14.796875 37.75 14.796875 27.984375 
Q 14.796875 18.265625 18.828125 12.890625 
Q 22.859375 7.515625 30.078125 7.515625 
Q 37.359375 7.515625 41.375 12.890625 
Q 45.40625 18.265625 45.40625 27.984375 
z
M 54.390625 6.78125 
Q 54.390625 -7.171875 48.1875 -13.984375 
Q 42 -20.796875 29.203125 -20.796875 
Q 24.46875 -20.796875 20.265625 -20.09375 
Q 16.0625 -19.390625 12.109375 -17.921875 
L 12.109375 -9.1875 
Q 16.0625 -11.328125 19.921875 -12.34375 
Q 23.78125 -13.375 27.78125 -13.375 
Q 36.625 -13.375 41.015625 -8.765625 
Q 45.40625 -4.15625 45.40625 5.171875 
L 45.40625 9.625 
Q 42.625 4.78125 38.28125 2.390625 
Q 33.9375 0 27.875 0 
Q 17.828125 0 11.671875 7.65625 
Q 5.515625 15.328125 5.515625 27.984375 
Q 5.515625 40.671875 11.671875 48.328125 
Q 17.828125 56 27.875 56 
Q 33.9375 56 38.28125 53.609375 
Q 42.625 51.21875 45.40625 46.390625 
L 45.40625 54.6875 
L 54.390625 54.6875 
z
" id="DejaVuSans-67"/>
      <path d="M 54.890625 33.015625 
L 54.890625 0 
L 45.90625 0 
L 45.90625 32.71875 
Q 45.90625 40.484375 42.875 44.328125 
Q 39.84375 48.1875 33.796875 48.1875 
Q 26.515625 48.1875 22.3125 43.546875 
Q 18.109375 38.921875 18.109375 30.90625 
L 18.109375 0 
L 9.078125 0 
L 9.078125 54.6875 
L 18.109375 54.6875 
L 18.109375 46.1875 
Q 21.34375 51.125 25.703125 53.5625 
Q 30.078125 56 35.796875 56 
Q 45.21875 56 50.046875 50.171875 
Q 54.890625 44.34375 54.890625 33.015625 
z
" id="DejaVuSans-6e"/>
     </defs>
     <g style="fill:#262626;" transform="translate(386.075167 47.604219)scale(0.11 -0.11)">
      <use xlink:href="#DejaVuSans-4f"/>
      <use x="78.710938" xlink:href="#DejaVuSans-72"/>
      <use x="119.824219" xlink:href="#DejaVuSans-69"/>
      <use x="147.607422" xlink:href="#DejaVuSans-67"/>
      <use x="211.083984" xlink:href="#DejaVuSans-69"/>
      <use x="238.867188" xlink:href="#DejaVuSans-6e"/>
      <use x="302.246094" xlink:href="#DejaVuSans-61"/>
      <use x="363.525391" xlink:href="#DejaVuSans-6c"/>
      <use x="391.308594" xlink:href="#DejaVuSans-20"/>
      <use x="423.095703" xlink:href="#DejaVuSans-52"/>
      <use x="492.578125" xlink:href="#DejaVuSans-4f"/>
      <use x="571.289062" xlink:href="#DejaVuSans-43"/>
      <use x="641.113281" xlink:href="#DejaVuSans-20"/>
      <use x="672.900391" xlink:href="#DejaVuSans-43"/>
      <use x="742.724609" xlink:href="#DejaVuSans-75"/>
      <use x="806.103516" xlink:href="#DejaVuSans-72"/>
      <use x="847.216797" xlink:href="#DejaVuSans-76"/>
      <use x="906.396484" xlink:href="#DejaVuSans-65"/>
     </g>
    </g>
   </g>
  </g>
  <g id="axes_2">
   <g id="patch_8">
    <path d="M 944.666239 309.1 
L 1415.644688 309.1 
L 1415.644688 13.2 
L 944.666239 13.2 
z
" style="fill:#eaeaf2;"/>
   </g>
   <g id="matplotlib.axis_3">
    <g id="xtick_7">
     <g id="line2d_13">
      <path clip-path="url(#p344e06e9c2)" d="M 944.666239 309.1 
L 944.666239 13.2 
" style="fill:none;stroke:#ffffff;stroke-linecap:round;"/>
     </g>
     <g id="text_18">
      <!-- 0.0 -->
      <g style="fill:#262626;" transform="translate(935.91952 326.958281)scale(0.11 -0.11)">
       <use xlink:href="#DejaVuSans-30"/>
       <use x="63.623047" xlink:href="#DejaVuSans-2e"/>
       <use x="95.410156" xlink:href="#DejaVuSans-30"/>
      </g>
     </g>
    </g>
    <g id="xtick_8">
     <g id="line2d_14">
      <path clip-path="url(#p344e06e9c2)" d="M 1038.861929 309.1 
L 1038.861929 13.2 
" style="fill:none;stroke:#ffffff;stroke-linecap:round;"/>
     </g>
     <g id="text_19">
      <!-- 0.2 -->
      <g style="fill:#262626;" transform="translate(1030.11521 326.958281)scale(0.11 -0.11)">
       <use xlink:href="#DejaVuSans-30"/>
       <use x="63.623047" xlink:href="#DejaVuSans-2e"/>
       <use x="95.410156" xlink:href="#DejaVuSans-32"/>
      </g>
     </g>
    </g>
    <g id="xtick_9">
     <g id="line2d_15">
      <path clip-path="url(#p344e06e9c2)" d="M 1133.057619 309.1 
L 1133.057619 13.2 
" style="fill:none;stroke:#ffffff;stroke-linecap:round;"/>
     </g>
     <g id="text_20">
      <!-- 0.4 -->
      <g style="fill:#262626;" transform="translate(1124.3109 326.958281)scale(0.11 -0.11)">
       <use xlink:href="#DejaVuSans-30"/>
       <use x="63.623047" xlink:href="#DejaVuSans-2e"/>
       <use x="95.410156" xlink:href="#DejaVuSans-34"/>
      </g>
     </g>
    </g>
    <g id="xtick_10">
     <g id="line2d_16">
      <path clip-path="url(#p344e06e9c2)" d="M 1227.253308 309.1 
L 1227.253308 13.2 
" style="fill:none;stroke:#ffffff;stroke-linecap:round;"/>
     </g>
     <g id="text_21">
      <!-- 0.6 -->
      <g style="fill:#262626;" transform="translate(1218.506589 326.958281)scale(0.11 -0.11)">
       <use xlink:href="#DejaVuSans-30"/>
       <use x="63.623047" xlink:href="#DejaVuSans-2e"/>
       <use x="95.410156" xlink:href="#DejaVuSans-36"/>
      </g>
     </g>
    </g>
    <g id="xtick_11">
     <g id="line2d_17">
      <path clip-path="url(#p344e06e9c2)" d="M 1321.448998 309.1 
L 1321.448998 13.2 
" style="fill:none;stroke:#ffffff;stroke-linecap:round;"/>
     </g>
     <g id="text_22">
      <!-- 0.8 -->
      <g style="fill:#262626;" transform="translate(1312.702279 326.958281)scale(0.11 -0.11)">
       <use xlink:href="#DejaVuSans-30"/>
       <use x="63.623047" xlink:href="#DejaVuSans-2e"/>
       <use x="95.410156" xlink:href="#DejaVuSans-38"/>
      </g>
     </g>
    </g>
    <g id="xtick_12">
     <g id="line2d_18">
      <path clip-path="url(#p344e06e9c2)" d="M 1415.644688 309.1 
L 1415.644688 13.2 
" style="fill:none;stroke:#ffffff;stroke-linecap:round;"/>
     </g>
     <g id="text_23">
      <!-- 1.0 -->
      <g style="fill:#262626;" transform="translate(1406.897969 326.958281)scale(0.11 -0.11)">
       <use xlink:href="#DejaVuSans-31"/>
       <use x="63.623047" xlink:href="#DejaVuSans-2e"/>
       <use x="95.410156" xlink:href="#DejaVuSans-30"/>
      </g>
     </g>
    </g>
    <g id="text_24">
     <!-- Recall -->
     <defs>
      <path d="M 48.78125 52.59375 
L 48.78125 44.1875 
Q 44.96875 46.296875 41.140625 47.34375 
Q 37.3125 48.390625 33.40625 48.390625 
Q 24.65625 48.390625 19.8125 42.84375 
Q 14.984375 37.3125 14.984375 27.296875 
Q 14.984375 17.28125 19.8125 11.734375 
Q 24.65625 6.203125 33.40625 6.203125 
Q 37.3125 6.203125 41.140625 7.25 
Q 44.96875 8.296875 48.78125 10.40625 
L 48.78125 2.09375 
Q 45.015625 0.34375 40.984375 -0.53125 
Q 36.96875 -1.421875 32.421875 -1.421875 
Q 20.0625 -1.421875 12.78125 6.34375 
Q 5.515625 14.109375 5.515625 27.296875 
Q 5.515625 40.671875 12.859375 48.328125 
Q 20.21875 56 33.015625 56 
Q 37.15625 56 41.109375 55.140625 
Q 45.0625 54.296875 48.78125 52.59375 
z
" id="DejaVuSans-63"/>
     </defs>
     <g style="fill:#262626;" transform="translate(1161.988588 342.364062)scale(0.12 -0.12)">
      <use xlink:href="#DejaVuSans-52"/>
      <use x="69.419922" xlink:href="#DejaVuSans-65"/>
      <use x="130.943359" xlink:href="#DejaVuSans-63"/>
      <use x="185.923828" xlink:href="#DejaVuSans-61"/>
      <use x="247.203125" xlink:href="#DejaVuSans-6c"/>
      <use x="274.986328" xlink:href="#DejaVuSans-6c"/>
     </g>
    </g>
   </g>
   <g id="matplotlib.axis_4">
    <g id="ytick_7">
     <g id="line2d_19">
      <path clip-path="url(#p344e06e9c2)" d="M 944.666239 309.1 
L 1415.644688 309.1 
" style="fill:none;stroke:#ffffff;stroke-linecap:round;"/>
     </g>
     <g id="text_25">
      <!-- 0.0 -->
      <g style="fill:#262626;" transform="translate(917.672802 313.279141)scale(0.11 -0.11)">
       <use xlink:href="#DejaVuSans-30"/>
       <use x="63.623047" xlink:href="#DejaVuSans-2e"/>
       <use x="95.410156" xlink:href="#DejaVuSans-30"/>
      </g>
     </g>
    </g>
    <g id="ytick_8">
     <g id="line2d_20">
      <path clip-path="url(#p344e06e9c2)" d="M 944.666239 249.92 
L 1415.644688 249.92 
" style="fill:none;stroke:#ffffff;stroke-linecap:round;"/>
     </g>
     <g id="text_26">
      <!-- 0.2 -->
      <g style="fill:#262626;" transform="translate(917.672802 254.099141)scale(0.11 -0.11)">
       <use xlink:href="#DejaVuSans-30"/>
       <use x="63.623047" xlink:href="#DejaVuSans-2e"/>
       <use x="95.410156" xlink:href="#DejaVuSans-32"/>
      </g>
     </g>
    </g>
    <g id="ytick_9">
     <g id="line2d_21">
      <path clip-path="url(#p344e06e9c2)" d="M 944.666239 190.74 
L 1415.644688 190.74 
" style="fill:none;stroke:#ffffff;stroke-linecap:round;"/>
     </g>
     <g id="text_27">
      <!-- 0.4 -->
      <g style="fill:#262626;" transform="translate(917.672802 194.919141)scale(0.11 -0.11)">
       <use xlink:href="#DejaVuSans-30"/>
       <use x="63.623047" xlink:href="#DejaVuSans-2e"/>
       <use x="95.410156" xlink:href="#DejaVuSans-34"/>
      </g>
     </g>
    </g>
    <g id="ytick_10">
     <g id="line2d_22">
      <path clip-path="url(#p344e06e9c2)" d="M 944.666239 131.56 
L 1415.644688 131.56 
" style="fill:none;stroke:#ffffff;stroke-linecap:round;"/>
     </g>
     <g id="text_28">
      <!-- 0.6 -->
      <g style="fill:#262626;" transform="translate(917.672802 135.739141)scale(0.11 -0.11)">
       <use xlink:href="#DejaVuSans-30"/>
       <use x="63.623047" xlink:href="#DejaVuSans-2e"/>
       <use x="95.410156" xlink:href="#DejaVuSans-36"/>
      </g>
     </g>
    </g>
    <g id="ytick_11">
     <g id="line2d_23">
      <path clip-path="url(#p344e06e9c2)" d="M 944.666239 72.38 
L 1415.644688 72.38 
" style="fill:none;stroke:#ffffff;stroke-linecap:round;"/>
     </g>
     <g id="text_29">
      <!-- 0.8 -->
      <g style="fill:#262626;" transform="translate(917.672802 76.559141)scale(0.11 -0.11)">
       <use xlink:href="#DejaVuSans-30"/>
       <use x="63.623047" xlink:href="#DejaVuSans-2e"/>
       <use x="95.410156" xlink:href="#DejaVuSans-38"/>
      </g>
     </g>
    </g>
    <g id="ytick_12">
     <g id="line2d_24">
      <path clip-path="url(#p344e06e9c2)" d="M 944.666239 13.2 
L 1415.644688 13.2 
" style="fill:none;stroke:#ffffff;stroke-linecap:round;"/>
     </g>
     <g id="text_30">
      <!-- 1.0 -->
      <g style="fill:#262626;" transform="translate(917.672802 17.379141)scale(0.11 -0.11)">
       <use xlink:href="#DejaVuSans-31"/>
       <use x="63.623047" xlink:href="#DejaVuSans-2e"/>
       <use x="95.410156" xlink:href="#DejaVuSans-30"/>
      </g>
     </g>
    </g>
    <g id="text_31">
     <!-- Precision -->
     <g style="fill:#262626;" transform="translate(911.177177 188.155625)rotate(-90)scale(0.12 -0.12)">
      <use xlink:href="#DejaVuSans-50"/>
      <use x="60.287109" xlink:href="#DejaVuSans-72"/>
      <use x="101.369141" xlink:href="#DejaVuSans-65"/>
      <use x="162.892578" xlink:href="#DejaVuSans-63"/>
      <use x="217.873047" xlink:href="#DejaVuSans-69"/>
      <use x="245.65625" xlink:href="#DejaVuSans-73"/>
      <use x="297.755859" xlink:href="#DejaVuSans-69"/>
      <use x="325.539062" xlink:href="#DejaVuSans-6f"/>
      <use x="386.720703" xlink:href="#DejaVuSans-6e"/>
     </g>
    </g>
   </g>
   <g id="PathCollection_5">
    <g clip-path="url(#p344e06e9c2)">
     <use style="fill:#4c72b0;stroke:#4c72b0;" x="968.215162" xlink:href="#m6d07813fbd" y="72.38"/>
     <use style="fill:#4c72b0;stroke:#4c72b0;" x="982.163979" xlink:href="#m6d07813fbd" y="119.41959"/>
     <use style="fill:#4c72b0;stroke:#4c72b0;" x="995.618625" xlink:href="#m6d07813fbd" y="135.926842"/>
     <use style="fill:#4c72b0;stroke:#4c72b0;" x="1007.98235" xlink:href="#m6d07813fbd" y="145.526331"/>
     <use style="fill:#4c72b0;stroke:#4c72b0;" x="1020.346075" xlink:href="#m6d07813fbd" y="151.411408"/>
     <use style="fill:#4c72b0;stroke:#4c72b0;" x="1032.7098" xlink:href="#m6d07813fbd" y="155.388465"/>
     <use style="fill:#4c72b0;stroke:#4c72b0;" x="1045.073525" xlink:href="#m6d07813fbd" y="158.255973"/>
     <use style="fill:#4c72b0;stroke:#4c72b0;" x="1057.43725" xlink:href="#m6d07813fbd" y="160.421416"/>
     <use style="fill:#4c72b0;stroke:#4c72b0;" x="1064.393567" xlink:href="#m6d07813fbd" y="165.38115"/>
     <use style="fill:#4c72b0;stroke:#4c72b0;" x="1067.710664" xlink:href="#m6d07813fbd" y="171.673193"/>
     <use style="fill:#4c72b0;stroke:#4c72b0;" x="1071.027761" xlink:href="#m6d07813fbd" y="177.146832"/>
     <use style="fill:#4c72b0;stroke:#4c72b0;" x="1074.344858" xlink:href="#m6d07813fbd" y="181.951992"/>
     <use style="fill:#4c72b0;stroke:#4c72b0;" x="1077.661955" xlink:href="#m6d07813fbd" y="186.204085"/>
     <use style="fill:#4c72b0;stroke:#4c72b0;" x="1080.979052" xlink:href="#m6d07813fbd" y="189.993399"/>
     <use style="fill:#4c72b0;stroke:#4c72b0;" x="1084.296149" xlink:href="#m6d07813fbd" y="193.391587"/>
     <use style="fill:#4c72b0;stroke:#4c72b0;" x="1087.613246" xlink:href="#m6d07813fbd" y="196.456233"/>
     <use style="fill:#4c72b0;stroke:#4c72b0;" x="1090.930343" xlink:href="#m6d07813fbd" y="199.234147"/>
     <use style="fill:#4c72b0;stroke:#4c72b0;" x="1094.24744" xlink:href="#m6d07813fbd" y="201.763771"/>
     <use style="fill:#4c72b0;stroke:#4c72b0;" x="1097.564536" xlink:href="#m6d07813fbd" y="204.076969"/>
     <use style="fill:#4c72b0;stroke:#4c72b0;" x="1100.881633" xlink:href="#m6d07813fbd" y="206.200378"/>
     <use style="fill:#4c72b0;stroke:#4c72b0;" x="1104.19873" xlink:href="#m6d07813fbd" y="208.156433"/>
     <use style="fill:#4c72b0;stroke:#4c72b0;" x="1107.515827" xlink:href="#m6d07813fbd" y="209.96417"/>
     <use style="fill:#4c72b0;stroke:#4c72b0;" x="1110.832924" xlink:href="#m6d07813fbd" y="211.639842"/>
     <use style="fill:#4c72b0;stroke:#4c72b0;" x="1114.150021" xlink:href="#m6d07813fbd" y="213.19741"/>
     <use style="fill:#4c72b0;stroke:#4c72b0;" x="1117.467118" xlink:href="#m6d07813fbd" y="214.648936"/>
     <use style="fill:#4c72b0;stroke:#4c72b0;" x="1120.784215" xlink:href="#m6d07813fbd" y="216.004892"/>
     <use style="fill:#4c72b0;stroke:#4c72b0;" x="1124.101312" xlink:href="#m6d07813fbd" y="217.274417"/>
     <use style="fill:#4c72b0;stroke:#4c72b0;" x="1127.418409" xlink:href="#m6d07813fbd" y="218.465519"/>
     <use style="fill:#4c72b0;stroke:#4c72b0;" x="1130.735506" xlink:href="#m6d07813fbd" y="219.585247"/>
     <use style="fill:#4c72b0;stroke:#4c72b0;" x="1133.857508" xlink:href="#m6d07813fbd" y="220.703734"/>
     <use style="fill:#4c72b0;stroke:#4c72b0;" x="1136.524193" xlink:href="#m6d07813fbd" y="221.90547"/>
     <use style="fill:#4c72b0;stroke:#4c72b0;" x="1139.190879" xlink:href="#m6d07813fbd" y="223.043322"/>
     <use style="fill:#4c72b0;stroke:#4c72b0;" x="1141.857565" xlink:href="#m6d07813fbd" y="224.122254"/>
     <use style="fill:#4c72b0;stroke:#4c72b0;" x="1144.524251" xlink:href="#m6d07813fbd" y="225.146726"/>
     <use style="fill:#4c72b0;stroke:#4c72b0;" x="1147.190936" xlink:href="#m6d07813fbd" y="226.12076"/>
     <use style="fill:#4c72b0;stroke:#4c72b0;" x="1149.857622" xlink:href="#m6d07813fbd" y="227.047992"/>
     <use style="fill:#4c72b0;stroke:#4c72b0;" x="1152.524308" xlink:href="#m6d07813fbd" y="227.931715"/>
     <use style="fill:#4c72b0;stroke:#4c72b0;" x="1155.190994" xlink:href="#m6d07813fbd" y="228.774922"/>
     <use style="fill:#4c72b0;stroke:#4c72b0;" x="1157.857679" xlink:href="#m6d07813fbd" y="229.580336"/>
     <use style="fill:#4c72b0;stroke:#4c72b0;" x="1160.524365" xlink:href="#m6d07813fbd" y="230.350443"/>
     <use style="fill:#4c72b0;stroke:#4c72b0;" x="1163.191051" xlink:href="#m6d07813fbd" y="231.087515"/>
     <use style="fill:#4c72b0;stroke:#4c72b0;" x="1165.857737" xlink:href="#m6d07813fbd" y="231.793632"/>
     <use style="fill:#4c72b0;stroke:#4c72b0;" x="1168.524423" xlink:href="#m6d07813fbd" y="232.470705"/>
     <use style="fill:#4c72b0;stroke:#4c72b0;" x="1171.191108" xlink:href="#m6d07813fbd" y="233.120489"/>
     <use style="fill:#4c72b0;stroke:#4c72b0;" x="1173.857794" xlink:href="#m6d07813fbd" y="233.744602"/>
     <use style="fill:#4c72b0;stroke:#4c72b0;" x="1176.52448" xlink:href="#m6d07813fbd" y="234.344535"/>
     <use style="fill:#4c72b0;stroke:#4c72b0;" x="1179.191166" xlink:href="#m6d07813fbd" y="234.921667"/>
     <use style="fill:#4c72b0;stroke:#4c72b0;" x="1181.227337" xlink:href="#m6d07813fbd" y="235.624384"/>
     <use style="fill:#4c72b0;stroke:#4c72b0;" x="1182.906362" xlink:href="#m6d07813fbd" y="236.384442"/>
     <use style="fill:#4c72b0;stroke:#4c72b0;" x="1184.585386" xlink:href="#m6d07813fbd" y="237.118621"/>
     <use style="fill:#4c72b0;stroke:#4c72b0;" x="1186.26441" xlink:href="#m6d07813fbd" y="237.828221"/>
     <use style="fill:#4c72b0;stroke:#4c72b0;" x="1187.943435" xlink:href="#m6d07813fbd" y="238.514456"/>
     <use style="fill:#4c72b0;stroke:#4c72b0;" x="1189.622459" xlink:href="#m6d07813fbd" y="239.178461"/>
     <use style="fill:#4c72b0;stroke:#4c72b0;" x="1191.301483" xlink:href="#m6d07813fbd" y="239.821298"/>
     <use style="fill:#4c72b0;stroke:#4c72b0;" x="1192.980508" xlink:href="#m6d07813fbd" y="240.443966"/>
     <use style="fill:#4c72b0;stroke:#4c72b0;" x="1194.659532" xlink:href="#m6d07813fbd" y="241.047397"/>
     <use style="fill:#4c72b0;stroke:#4c72b0;" x="1196.338557" xlink:href="#m6d07813fbd" y="241.63247"/>
     <use style="fill:#4c72b0;stroke:#4c72b0;" x="1198.017581" xlink:href="#m6d07813fbd" y="242.20001"/>
     <use style="fill:#4c72b0;stroke:#4c72b0;" x="1199.696605" xlink:href="#m6d07813fbd" y="242.750793"/>
     <use style="fill:#4c72b0;stroke:#4c72b0;" x="1201.37563" xlink:href="#m6d07813fbd" y="243.285552"/>
     <use style="fill:#4c72b0;stroke:#4c72b0;" x="1203.054654" xlink:href="#m6d07813fbd" y="243.804975"/>
     <use style="fill:#4c72b0;stroke:#4c72b0;" x="1204.733678" xlink:href="#m6d07813fbd" y="244.309712"/>
     <use style="fill:#4c72b0;stroke:#4c72b0;" x="1206.412703" xlink:href="#m6d07813fbd" y="244.800378"/>
     <use style="fill:#4c72b0;stroke:#4c72b0;" x="1208.091727" xlink:href="#m6d07813fbd" y="245.277552"/>
     <use style="fill:#4c72b0;stroke:#4c72b0;" x="1209.770751" xlink:href="#m6d07813fbd" y="245.741785"/>
     <use style="fill:#4c72b0;stroke:#4c72b0;" x="1211.449776" xlink:href="#m6d07813fbd" y="246.193595"/>
     <use style="fill:#4c72b0;stroke:#4c72b0;" x="1213.1288" xlink:href="#m6d07813fbd" y="246.633475"/>
     <use style="fill:#4c72b0;stroke:#4c72b0;" x="1214.807825" xlink:href="#m6d07813fbd" y="247.06189"/>
     <use style="fill:#4c72b0;stroke:#4c72b0;" x="1216.486849" xlink:href="#m6d07813fbd" y="247.479284"/>
     <use style="fill:#4c72b0;stroke:#4c72b0;" x="1218.165873" xlink:href="#m6d07813fbd" y="247.886076"/>
     <use style="fill:#4c72b0;stroke:#4c72b0;" x="1219.844898" xlink:href="#m6d07813fbd" y="248.282664"/>
     <use style="fill:#4c72b0;stroke:#4c72b0;" x="1221.523922" xlink:href="#m6d07813fbd" y="248.669429"/>
     <use style="fill:#4c72b0;stroke:#4c72b0;" x="1223.202946" xlink:href="#m6d07813fbd" y="249.046731"/>
     <use style="fill:#4c72b0;stroke:#4c72b0;" x="1224.881971" xlink:href="#m6d07813fbd" y="249.414912"/>
     <use style="fill:#4c72b0;stroke:#4c72b0;" x="1226.560995" xlink:href="#m6d07813fbd" y="249.7743"/>
     <use style="fill:#4c72b0;stroke:#4c72b0;" x="1228.378993" xlink:href="#m6d07813fbd" y="250.102067"/>
     <use style="fill:#4c72b0;stroke:#4c72b0;" x="1230.2945" xlink:href="#m6d07813fbd" y="250.406062"/>
     <use style="fill:#4c72b0;stroke:#4c72b0;" x="1232.210006" xlink:href="#m6d07813fbd" y="250.702952"/>
     <use style="fill:#4c72b0;stroke:#4c72b0;" x="1234.125513" xlink:href="#m6d07813fbd" y="250.992983"/>
     <use style="fill:#4c72b0;stroke:#4c72b0;" x="1236.04102" xlink:href="#m6d07813fbd" y="251.27639"/>
     <use style="fill:#4c72b0;stroke:#4c72b0;" x="1237.956526" xlink:href="#m6d07813fbd" y="251.553398"/>
     <use style="fill:#4c72b0;stroke:#4c72b0;" x="1239.872033" xlink:href="#m6d07813fbd" y="251.82422"/>
     <use style="fill:#4c72b0;stroke:#4c72b0;" x="1241.78754" xlink:href="#m6d07813fbd" y="252.089062"/>
     <use style="fill:#4c72b0;stroke:#4c72b0;" x="1243.703046" xlink:href="#m6d07813fbd" y="252.34812"/>
     <use style="fill:#4c72b0;stroke:#4c72b0;" x="1245.618553" xlink:href="#m6d07813fbd" y="252.601581"/>
     <use style="fill:#4c72b0;stroke:#4c72b0;" x="1247.53406" xlink:href="#m6d07813fbd" y="252.849624"/>
     <use style="fill:#4c72b0;stroke:#4c72b0;" x="1249.449566" xlink:href="#m6d07813fbd" y="253.092422"/>
     <use style="fill:#4c72b0;stroke:#4c72b0;" x="1251.365073" xlink:href="#m6d07813fbd" y="253.330138"/>
     <use style="fill:#4c72b0;stroke:#4c72b0;" x="1253.28058" xlink:href="#m6d07813fbd" y="253.562932"/>
     <use style="fill:#4c72b0;stroke:#4c72b0;" x="1255.196086" xlink:href="#m6d07813fbd" y="253.790953"/>
     <use style="fill:#4c72b0;stroke:#4c72b0;" x="1257.111593" xlink:href="#m6d07813fbd" y="254.014349"/>
     <use style="fill:#4c72b0;stroke:#4c72b0;" x="1259.0271" xlink:href="#m6d07813fbd" y="254.233257"/>
     <use style="fill:#4c72b0;stroke:#4c72b0;" x="1260.942606" xlink:href="#m6d07813fbd" y="254.447811"/>
     <use style="fill:#4c72b0;stroke:#4c72b0;" x="1262.858113" xlink:href="#m6d07813fbd" y="254.658141"/>
     <use style="fill:#4c72b0;stroke:#4c72b0;" x="1264.77362" xlink:href="#m6d07813fbd" y="254.86437"/>
     <use style="fill:#4c72b0;stroke:#4c72b0;" x="1266.689126" xlink:href="#m6d07813fbd" y="255.066617"/>
     <use style="fill:#4c72b0;stroke:#4c72b0;" x="1268.604633" xlink:href="#m6d07813fbd" y="255.264995"/>
     <use style="fill:#4c72b0;stroke:#4c72b0;" x="1270.52014" xlink:href="#m6d07813fbd" y="255.459615"/>
     <use style="fill:#4c72b0;stroke:#4c72b0;" x="1272.435646" xlink:href="#m6d07813fbd" y="255.650583"/>
     <use style="fill:#4c72b0;stroke:#4c72b0;" x="1274.351153" xlink:href="#m6d07813fbd" y="255.838"/>
    </g>
   </g>
   <g id="PathCollection_6">
    <g clip-path="url(#p344e06e9c2)">
     <use style="stroke:#000000;stroke-width:1.5;" x="968.215162" xlink:href="#mdfbc6ba753" y="72.38"/>
     <use style="stroke:#000000;stroke-width:1.5;" x="991.764084" xlink:href="#mdfbc6ba753" y="131.56"/>
     <use style="stroke:#000000;stroke-width:1.5;" x="1062.410851" xlink:href="#mdfbc6ba753" y="161.15"/>
     <use style="stroke:#000000;stroke-width:1.5;" x="1133.057619" xlink:href="#mdfbc6ba753" y="220.33"/>
     <use style="stroke:#000000;stroke-width:1.5;" x="1180.155463" xlink:href="#mdfbc6ba753" y="235.125"/>
     <use style="stroke:#000000;stroke-width:1.5;" x="1227.253308" xlink:href="#mdfbc6ba753" y="249.92"/>
     <use style="stroke:#000000;stroke-width:1.5;" x="1274.351153" xlink:href="#mdfbc6ba753" y="255.838"/>
    </g>
   </g>
   <g id="patch_9">
    <path d="M 647.604323 176.4 
Q 715.132188 176.4 782.660052 176.4 
" style="fill:none;stroke:#000000;stroke-linecap:round;stroke-width:4;"/>
    <path d="M 667.604323 186.4 
L 647.604323 176.4 
L 667.604323 166.4 
L 667.604323 186.4 
z
" style="stroke:#000000;stroke-linecap:round;stroke-width:4;"/>
    <path d="M 762.660052 166.4 
L 782.660052 176.4 
L 762.660052 186.4 
L 762.660052 166.4 
z
" style="stroke:#000000;stroke-linecap:round;stroke-width:4;"/>
   </g>
   <g id="patch_10">
    <path d="M 944.666239 309.1 
L 944.666239 13.2 
" style="fill:none;stroke:#ffffff;stroke-linecap:square;stroke-linejoin:miter;stroke-width:1.25;"/>
   </g>
   <g id="patch_11">
    <path d="M 1415.644688 309.1 
L 1415.644688 13.2 
" style="fill:none;stroke:#ffffff;stroke-linecap:square;stroke-linejoin:miter;stroke-width:1.25;"/>
   </g>
   <g id="patch_12">
    <path d="M 944.666239 309.1 
L 1415.644688 309.1 
" style="fill:none;stroke:#ffffff;stroke-linecap:square;stroke-linejoin:miter;stroke-width:1.25;"/>
   </g>
   <g id="patch_13">
    <path d="M 944.666239 13.2 
L 1415.644688 13.2 
" style="fill:none;stroke:#ffffff;stroke-linecap:square;stroke-linejoin:miter;stroke-width:1.25;"/>
   </g>
   <g id="text_32">
    <!-- PR -->
    <g style="fill:#262626;" transform="translate(1180.155463 101.97)scale(0.3 -0.3)">
     <use xlink:href="#DejaVuSans-50"/>
     <use x="60.302734" xlink:href="#DejaVuSans-52"/>
    </g>
   </g>
   <g id="legend_2">
    <g id="patch_14">
     <path d="M 1257.641719 54.291875 
L 1407.944688 54.291875 
Q 1410.144688 54.291875 1410.144688 52.091875 
L 1410.144688 20.9 
Q 1410.144688 18.7 1407.944688 18.7 
L 1257.641719 18.7 
Q 1255.441719 18.7 1255.441719 20.9 
L 1255.441719 52.091875 
Q 1255.441719 54.291875 1257.641719 54.291875 
z
" style="fill:#eaeaf2;opacity:0.8;stroke:#cccccc;stroke-linejoin:miter;"/>
    </g>
    <g id="PathCollection_7">
     <g>
      <use style="fill:#4c72b0;stroke:#4c72b0;" x="1270.841719" xlink:href="#m6d07813fbd" y="28.570781"/>
     </g>
    </g>
    <g id="text_33">
     <!-- Resampled PR Curve -->
     <g style="fill:#262626;" transform="translate(1290.641719 31.458281)scale(0.11 -0.11)">
      <use xlink:href="#DejaVuSans-52"/>
      <use x="69.419922" xlink:href="#DejaVuSans-65"/>
      <use x="130.943359" xlink:href="#DejaVuSans-73"/>
      <use x="183.042969" xlink:href="#DejaVuSans-61"/>
      <use x="244.322266" xlink:href="#DejaVuSans-6d"/>
      <use x="341.734375" xlink:href="#DejaVuSans-70"/>
      <use x="405.210938" xlink:href="#DejaVuSans-6c"/>
      <use x="432.994141" xlink:href="#DejaVuSans-65"/>
      <use x="494.517578" xlink:href="#DejaVuSans-64"/>
      <use x="557.994141" xlink:href="#DejaVuSans-20"/>
      <use x="589.78125" xlink:href="#DejaVuSans-50"/>
      <use x="650.083984" xlink:href="#DejaVuSans-52"/>
      <use x="719.566406" xlink:href="#DejaVuSans-20"/>
      <use x="751.353516" xlink:href="#DejaVuSans-43"/>
      <use x="821.177734" xlink:href="#DejaVuSans-75"/>
      <use x="884.556641" xlink:href="#DejaVuSans-72"/>
      <use x="925.669922" xlink:href="#DejaVuSans-76"/>
      <use x="984.849609" xlink:href="#DejaVuSans-65"/>
     </g>
    </g>
    <g id="PathCollection_8">
     <g>
      <use style="stroke:#000000;stroke-width:1.5;" x="1270.841719" xlink:href="#mdfbc6ba753" y="44.716719"/>
     </g>
    </g>
    <g id="text_34">
     <!-- Original PR Curve -->
     <g style="fill:#262626;" transform="translate(1290.641719 47.604219)scale(0.11 -0.11)">
      <use xlink:href="#DejaVuSans-4f"/>
      <use x="78.710938" xlink:href="#DejaVuSans-72"/>
      <use x="119.824219" xlink:href="#DejaVuSans-69"/>
      <use x="147.607422" xlink:href="#DejaVuSans-67"/>
      <use x="211.083984" xlink:href="#DejaVuSans-69"/>
      <use x="238.867188" xlink:href="#DejaVuSans-6e"/>
      <use x="302.246094" xlink:href="#DejaVuSans-61"/>
      <use x="363.525391" xlink:href="#DejaVuSans-6c"/>
      <use x="391.308594" xlink:href="#DejaVuSans-20"/>
      <use x="423.095703" xlink:href="#DejaVuSans-50"/>
      <use x="483.398438" xlink:href="#DejaVuSans-52"/>
      <use x="552.880859" xlink:href="#DejaVuSans-20"/>
      <use x="584.667969" xlink:href="#DejaVuSans-43"/>
      <use x="654.492188" xlink:href="#DejaVuSans-75"/>
      <use x="717.871094" xlink:href="#DejaVuSans-72"/>
      <use x="758.984375" xlink:href="#DejaVuSans-76"/>
      <use x="818.164062" xlink:href="#DejaVuSans-65"/>
     </g>
    </g>
   </g>
  </g>
 </g>
 <defs>
  <clipPath id="p210fd5a8b1">
   <rect height="295.9" width="470.978448" x="49.807188" y="13.2"/>
  </clipPath>
  <clipPath id="p344e06e9c2">
   <rect height="295.9" width="470.978448" x="944.666239" y="13.2"/>
  </clipPath>
 </defs>
</svg>
